<svg width="1440" height="756" viewBox="0 0 1440 756" fill="none" xmlns="http://www.w3.org/2000/svg">
<g opacity="0.1">
<path d="M562.032 756C280.705 734.245 51.4577 619.424 -28 564.734V756H562.032Z" fill="#0C4A6E"/>
<path d="M-28 564.734C51.4577 619.424 280.705 734.245 562.032 756H1052.94C806.96 688.003 594.721 572.424 423.058 448.039C297.668 401.188 198.587 355.419 123.753 314.628C123.519 314.598 123.286 314.567 123.052 314.537C65.9712 323.713 14.9871 333.689 -28 343.554V564.734Z" fill="#075985"/>
<path d="M1052.94 756H1440V700.588C996.097 630.42 661.864 537.267 423.058 448.039C594.721 572.424 806.96 688.003 1052.94 756Z" fill="#0369A1"/>
<path d="M123.753 314.628C198.587 355.419 297.668 401.188 423.058 448.039C371.899 410.97 324.343 373.118 280.572 335.51C225.537 327.999 172.885 321.003 123.753 314.628Z" fill="#0369A1"/>
<path d="M-28 295.511V343.554C14.9871 333.689 65.9712 323.713 123.052 314.537C67.6684 307.353 16.7726 300.96 -28 295.511Z" fill="#0369A1"/>
<path d="M-28 213.022V295.511C16.7726 300.96 67.6684 307.353 123.052 314.537C123.189 314.515 123.327 314.493 123.465 314.47C50.5696 274.715 0.71818 239.696 -28 213.022Z" fill="#0284C7"/>
<path d="M123.753 314.628C172.885 321.003 225.537 327.999 280.572 335.51C266.089 323.066 252.02 310.649 238.372 298.296C197.962 303.215 159.501 308.683 123.465 314.47L123.753 314.628Z" fill="#0284C7"/>
<path d="M423.058 448.039C661.864 537.267 996.097 630.42 1440 700.588V546.604C1240.07 477.156 693.334 391.845 280.572 335.51C324.343 373.118 371.899 410.97 423.058 448.039Z" fill="#0EA5E9"/>
<path d="M1440 546.604V456.863C1108.24 254.226 596.715 254.676 238.372 298.296C252.02 310.649 266.089 323.066 280.572 335.51C693.334 391.845 1240.07 477.156 1440 546.604Z" fill="#0891B2"/>
<path d="M-28 213.022C0.71818 239.696 50.5696 274.715 123.465 314.47C159.501 308.683 197.962 303.215 238.372 298.296C111.37 183.342 20.8188 73.9227 -28 0V213.022Z" fill="#0C4A6E"/>
</g>
</svg>
