<svg width="114" height="48" viewBox="0 0 114 48" fill="none" xmlns="http://www.w3.org/2000/svg">
<path d="M42.6202 33.7635C43.1971 34.3062 43.6615 34.9572 43.9868 35.6794C44.3121 36.4015 44.492 37.1807 44.5161 37.9724C44.5403 38.7641 44.4083 39.5527 44.1277 40.2934C43.8471 41.0341 43.4233 41.7122 42.8806 42.2891C42.3379 42.866 41.6869 43.3304 40.9648 43.6557C40.2426 43.981 39.4634 44.1609 38.6718 44.185C37.8801 44.2092 37.0914 44.0772 36.3507 43.7966C35.6101 43.516 34.9319 43.0922 34.355 42.5495L34.5616 42.3299C35.1097 42.8454 35.7539 43.248 36.4576 43.5146C37.1612 43.7812 37.9105 43.9066 38.6626 43.8836C39.4146 43.8606 40.1548 43.6898 40.8409 43.3807C41.527 43.0717 42.1454 42.6305 42.661 42.0825C43.1765 41.5344 43.5791 40.8902 43.8457 40.1866C44.1123 39.4829 44.2377 38.7337 44.2147 37.9816C44.1917 37.2295 44.0209 36.4893 43.7118 35.8032C43.4028 35.1172 42.9616 34.4987 42.4136 33.9832L42.6202 33.7635Z" fill="url(#paint0_linear_304_554)"/>
<path d="M41.5871 34.8618C42.0197 35.2688 42.368 35.757 42.612 36.2987C42.856 36.8403 42.9909 37.4246 43.009 38.0184C43.0272 38.6122 42.9282 39.2037 42.7177 39.7592C42.5072 40.3147 42.1894 40.8233 41.7824 41.256C41.3754 41.6886 40.8871 42.0369 40.3455 42.2809C39.8039 42.5249 39.2195 42.6598 38.6257 42.6779C38.032 42.696 37.4405 42.597 36.885 42.3866C36.3295 42.1761 35.8208 41.8583 35.3882 41.4513L35.5431 41.2865C35.9542 41.6732 36.4374 41.9751 36.9651 42.1751C37.4928 42.375 38.0548 42.4691 38.6188 42.4518C39.1829 42.4346 39.738 42.3064 40.2526 42.0747C40.7671 41.8429 41.231 41.512 41.6176 41.101C42.0043 40.6899 42.3062 40.2068 42.5062 39.679C42.7061 39.1513 42.8002 38.5894 42.7829 38.0253C42.7657 37.4612 42.6376 36.9061 42.4058 36.3916C42.174 35.877 41.8431 35.4132 41.4321 35.0265L41.5871 34.8618Z" fill="url(#paint1_linear_304_554)"/>
<path d="M42.6202 33.7635C42.0433 33.2208 41.3652 32.797 40.6245 32.5164C39.8838 32.2358 39.0952 32.1038 38.3035 32.128C37.5118 32.1522 36.7326 32.3321 36.0105 32.6574C35.2883 32.9827 34.6373 33.447 34.0946 34.0239C33.5519 34.6008 33.1282 35.279 32.8475 36.0196C32.5669 36.7603 32.4349 37.549 32.4591 38.3407C32.4833 39.1323 32.6632 39.9115 32.9885 40.6337C33.3138 41.3558 33.7781 42.0068 34.355 42.5495L34.5617 42.3299C34.0136 41.8143 33.5725 41.1958 33.2634 40.5098C32.9544 39.8237 32.7835 39.0835 32.7605 38.3314C32.7376 37.5794 32.8629 36.8301 33.1295 36.1265C33.3961 35.4228 33.7987 34.7786 34.3143 34.2305C34.8298 33.6825 35.4483 33.2414 36.1343 32.9323C36.8204 32.6233 37.5606 32.4524 38.3127 32.4294C39.0648 32.4064 39.814 32.5318 40.5177 32.7984C41.2213 33.065 41.8655 33.4676 42.4136 33.9832L42.6202 33.7635Z" fill="url(#paint2_linear_304_554)"/>
<path d="M41.5871 34.8617C41.1544 34.4547 40.6458 34.1369 40.0903 33.9264C39.5348 33.716 38.9433 33.617 38.3495 33.6351C37.7558 33.6533 37.1714 33.7882 36.6298 34.0321C36.0882 34.2761 35.5999 34.6244 35.1929 35.0571C34.7858 35.4897 34.468 35.9983 34.2576 36.5538C34.0471 37.1093 33.9481 37.7009 33.9662 38.2946C33.9844 38.8884 34.1193 39.4727 34.3633 40.0144C34.6072 40.556 34.9555 41.0442 35.3882 41.4513L35.5431 41.2865C35.1321 40.8999 34.8013 40.436 34.5695 39.9215C34.3377 39.4069 34.2095 38.8518 34.1923 38.2877C34.1751 37.7236 34.2691 37.1617 34.4691 36.634C34.669 36.1062 34.9709 35.6231 35.3576 35.212C35.7443 34.801 36.2081 34.4701 36.7227 34.2384C37.2372 34.0066 37.7924 33.8784 38.3564 33.8612C38.9205 33.844 39.4824 33.938 40.0102 34.1379C40.5379 34.3379 41.0211 34.6398 41.4321 35.0265L41.5871 34.8617Z" fill="url(#paint3_linear_304_554)"/>
<circle cx="38.4876" cy="38.1565" r="1.20627" transform="rotate(-46.7496 38.4876 38.1565)" fill="#53808F"/>
<path d="M40.9116 35.5798L43.6534 32.6652L39.895 35.3401L40.9116 35.5798Z" fill="#53808F"/>
<path d="M33.1152 43.8674L36.8736 41.1926L35.8571 40.9528L33.1152 43.8674Z" fill="#53808F"/>
<path d="M15.1659 40.7776C14.8195 41.4899 14.3363 42.127 13.7437 42.6525C13.1511 43.178 12.4608 43.5817 11.7122 43.8404C10.9636 44.0992 10.1714 44.208 9.38077 44.1606C8.59015 44.1131 7.8166 43.9105 7.10431 43.5641C6.39201 43.2177 5.75491 42.7345 5.22938 42.1419C4.70385 41.5493 4.30018 40.859 4.04143 40.1104C3.78267 39.3618 3.6739 38.5696 3.72131 37.779C3.76873 36.9884 3.9714 36.2148 4.31776 35.5025L4.58897 35.6344C4.25992 36.3111 4.06738 37.0459 4.02234 37.797C3.97729 38.5481 4.08063 39.3007 4.32645 40.0119C4.57226 40.7231 4.95575 41.3788 5.455 41.9418C5.95425 42.5047 6.5595 42.9639 7.23618 43.2929C7.91287 43.6219 8.64773 43.8145 9.39883 43.8595C10.1499 43.9046 10.9025 43.8012 11.6137 43.5554C12.3248 43.3096 12.9806 42.9261 13.5436 42.4269C14.1065 41.9276 14.5656 41.3224 14.8947 40.6457L15.1659 40.7776Z" fill="url(#paint4_linear_304_554)"/>
<path d="M13.8099 40.1182C13.5501 40.6524 13.1876 41.1302 12.7432 41.5244C12.2988 41.9185 11.781 42.2213 11.2196 42.4153C10.6582 42.6094 10.064 42.691 9.47103 42.6554C8.87806 42.6199 8.29791 42.4679 7.76368 42.2081C7.22946 41.9483 6.75163 41.5859 6.35749 41.1414C5.96334 40.697 5.66059 40.1793 5.46652 39.6178C5.27246 39.0564 5.19088 38.4622 5.22644 37.8693C5.262 37.2763 5.414 36.6961 5.67378 36.1619L5.87718 36.2608C5.63039 36.7683 5.48599 37.3195 5.45221 37.8828C5.41842 38.4461 5.49593 39.0106 5.68029 39.5439C5.86465 40.0773 6.15226 40.5691 6.5267 40.9914C6.90114 41.4136 7.35508 41.7579 7.86259 42.0047C8.3701 42.2515 8.92125 42.3959 9.48457 42.4297C10.0479 42.4634 10.6124 42.3859 11.1457 42.2016C11.6791 42.0172 12.1709 41.7296 12.5931 41.3552C13.0154 40.9807 13.3597 40.5268 13.6065 40.0193L13.8099 40.1182Z" fill="url(#paint5_linear_304_554)"/>
<path d="M15.1659 40.7776C15.5123 40.0653 15.7149 39.2917 15.7623 38.5011C15.8098 37.7105 15.701 36.9182 15.4422 36.1696C15.1835 35.4211 14.7798 34.7308 14.2543 34.1382C13.7287 33.5456 13.0916 33.0623 12.3793 32.716C11.667 32.3696 10.8935 32.1669 10.1029 32.1195C9.31225 32.0721 8.52003 32.1809 7.77144 32.4396C7.02286 32.6984 6.33256 33.1021 5.73998 33.6276C5.1474 34.1531 4.66413 34.7902 4.31776 35.5025L4.58897 35.6344C4.91801 34.9577 5.37712 34.3525 5.94007 33.8532C6.50303 33.354 7.1588 32.9705 7.86996 32.7247C8.58112 32.4788 9.33373 32.3755 10.0848 32.4205C10.8359 32.4656 11.5708 32.6581 12.2475 32.9872C12.9242 33.3162 13.5294 33.7753 14.0287 34.3383C14.5279 34.9012 14.9114 35.557 15.1572 36.2682C15.403 36.9793 15.5064 37.7319 15.4613 38.483C15.4163 39.2341 15.2237 39.969 14.8947 40.6457L15.1659 40.7776Z" fill="url(#paint6_linear_304_554)"/>
<path d="M13.8099 40.1182C14.0696 39.584 14.2217 39.0038 14.2572 38.4108C14.2928 37.8179 14.2112 37.2237 14.0171 36.6623C13.8231 36.1008 13.5203 35.5831 13.1262 35.1387C12.732 34.6942 12.2542 34.3318 11.72 34.072C11.1857 33.8122 10.6056 33.6602 10.0126 33.6247C9.41965 33.5891 8.82548 33.6707 8.26404 33.8647C7.7026 34.0588 7.18488 34.3616 6.74044 34.7557C6.29601 35.1499 5.93355 35.6277 5.67378 36.1619L5.87718 36.2608C6.12397 35.7533 6.4683 35.2994 6.89051 34.9249C7.31273 34.5505 7.80456 34.2629 8.33793 34.0785C8.8713 33.8941 9.43576 33.8166 9.99908 33.8504C10.5624 33.8842 11.1135 34.0286 11.6211 34.2754C12.1286 34.5222 12.5825 34.8665 12.9569 35.2887C13.3314 35.7109 13.619 36.2028 13.8034 36.7361C13.9877 37.2695 14.0652 37.834 14.0314 38.3973C13.9977 38.9606 13.8533 39.5118 13.6065 40.0193L13.8099 40.1182Z" fill="url(#paint7_linear_304_554)"/>
<circle cx="9.74183" cy="38.14" r="1.20627" transform="rotate(25.9319 9.74183 38.14)" fill="#53808F"/>
<path d="M12.9232 39.687L16.5219 41.4369L12.8495 38.6452L12.9232 39.687Z" fill="#53808F"/>
<path d="M2.69055 34.7113L6.36296 37.503L6.2892 36.4612L2.69055 34.7113Z" fill="#53808F"/>
<path d="M12 11C12 11 20 18.8 24.5 18.8C29 18.8 37 11 37 11C37 11 29.5 19.32 29.5 24C29.5 28.68 37 37 37 37C37 37 29 29.2 24.5 29.2C20 29.2 12 37 12 37C12 37 19.5 28.68 19.5 24C19.5 19.32 12 11 12 11Z" fill="#203A43"/>
<path d="M44.4087 10.89C44.1787 11.6479 43.8016 12.353 43.299 12.9652C42.7964 13.5774 42.1781 14.0845 41.4795 14.4577C40.7809 14.831 40.0157 15.0629 39.2274 15.1404C38.4392 15.2179 37.6434 15.1393 36.8855 14.9093C36.1276 14.6792 35.4224 14.3021 34.8103 13.7995C34.1981 13.2969 33.691 12.6787 33.3177 11.9801C32.9445 11.2815 32.7125 10.5162 32.6351 9.72794C32.5576 8.93969 32.6361 8.1439 32.8662 7.38601L33.1548 7.47361C32.9362 8.19361 32.8616 8.94961 32.9352 9.69844C33.0088 10.4473 33.2292 11.1743 33.5837 11.838C33.9383 12.5016 34.4201 13.089 35.0016 13.5664C35.5832 14.0439 36.2531 14.4021 36.9731 14.6207C37.6931 14.8393 38.4491 14.9139 39.1979 14.8403C39.9468 14.7667 40.6738 14.5463 41.3374 14.1918C42.0011 13.8372 42.5884 13.3554 43.0659 12.7738C43.5434 12.1923 43.9016 11.5224 44.1202 10.8024L44.4087 10.89Z" fill="url(#paint8_linear_304_554)"/>
<path d="M42.9659 10.452C42.7934 11.0204 42.5106 11.5493 42.1336 12.0084C41.7567 12.4675 41.293 12.8479 40.769 13.1278C40.2451 13.4077 39.6711 13.5817 39.0799 13.6398C38.4888 13.6979 37.8919 13.639 37.3235 13.4665C36.7551 13.2939 36.2262 13.0111 35.7671 12.6341C35.308 12.2572 34.9276 11.7935 34.6477 11.2695C34.3678 10.7456 34.1938 10.1716 34.1357 9.58045C34.0776 8.98927 34.1365 8.39243 34.309 7.82401L34.5255 7.88971C34.3615 8.42971 34.3056 8.9967 34.3608 9.55833C34.416 10.12 34.5812 10.6652 34.8472 11.163C35.1131 11.6607 35.4744 12.1012 35.9106 12.4593C36.3468 12.8174 36.8492 13.0861 37.3892 13.25C37.9292 13.414 38.4962 13.4699 39.0578 13.4147C39.6194 13.3595 40.1647 13.1942 40.6625 12.9283C41.1602 12.6624 41.6007 12.301 41.9588 11.8649C42.3169 11.4287 42.5856 10.9263 42.7495 10.3863L42.9659 10.452Z" fill="url(#paint9_linear_304_554)"/>
<path d="M44.4087 10.89C44.6388 10.1321 44.7174 9.33632 44.6399 8.54807C44.5624 7.75982 44.3305 6.99455 43.9572 6.29595C43.584 5.59735 43.0768 4.97911 42.4647 4.47651C41.8525 3.97392 41.1474 3.59682 40.3895 3.36674C39.6316 3.13667 38.8358 3.05812 38.0475 3.13559C37.2593 3.21307 36.494 3.44503 35.7954 3.81826C35.0968 4.19148 34.4786 4.69865 33.976 5.31081C33.4734 5.92296 33.0963 6.62812 32.8662 7.38601L33.1548 7.47361C33.3734 6.75361 33.7316 6.08371 34.2091 5.50217C34.6865 4.92062 35.2739 4.43881 35.9375 4.08425C36.6012 3.72968 37.3282 3.50931 38.077 3.43571C38.8259 3.36212 39.5819 3.43673 40.3019 3.65531C41.0219 3.87388 41.6918 4.23212 42.2733 4.70959C42.8549 5.18705 43.3367 5.77439 43.6912 6.43806C44.0458 7.10172 44.2662 7.82873 44.3398 8.57757C44.4134 9.3264 44.3388 10.0824 44.1202 10.8024L44.4087 10.89Z" fill="url(#paint10_linear_304_554)"/>
<path d="M42.9659 10.452C43.1385 9.88358 43.1974 9.28673 43.1393 8.69555C43.0812 8.10436 42.9072 7.53041 42.6273 7.00646C42.3474 6.48251 41.967 6.01883 41.5079 5.64188C41.0488 5.26493 40.5199 4.98211 39.9515 4.80955C39.3831 4.637 38.7862 4.57809 38.195 4.63619C37.6038 4.69429 37.0299 4.86827 36.5059 5.14819C35.982 5.42811 35.5183 5.80848 35.1414 6.2676C34.7644 6.72672 34.4816 7.25558 34.309 7.824L34.5255 7.8897C34.6894 7.3497 34.9581 6.84728 35.3162 6.41112C35.6743 5.97496 36.1148 5.6136 36.6125 5.34768C37.1103 5.08176 37.6555 4.91648 38.2172 4.86128C38.7788 4.80608 39.3458 4.86205 39.8858 5.02597C40.4258 5.1899 40.9282 5.45859 41.3644 5.81669C41.8005 6.17478 42.1619 6.61529 42.4278 7.11304C42.6937 7.61079 42.859 8.15604 42.9142 8.71767C42.9694 9.2793 42.9134 9.8463 42.7495 10.3863L42.9659 10.452Z" fill="url(#paint11_linear_304_554)"/>
<circle cx="38.6375" cy="9.138" r="1.20627" transform="rotate(16.8868 38.6375 9.138)" fill="#53808F"/>
<path d="M42.0226 10.1656L45.8516 11.328L41.7859 9.1483L42.0226 10.1656Z" fill="#53808F"/>
<path d="M31.1348 6.8604L35.2005 9.04009L34.9639 8.02278L31.1348 6.8604Z" fill="#53808F"/>
<path d="M14.8843 5.85204C15.3245 6.51048 15.6307 7.24919 15.7855 8.02597C15.9402 8.80276 15.9404 9.60241 15.7861 10.3793C15.6318 11.1561 15.326 11.895 14.8861 12.5537C14.4462 13.2124 13.881 13.778 13.2225 14.2182C12.5641 14.6584 11.8254 14.9646 11.0486 15.1193C10.2718 15.2741 9.47214 15.2743 8.69527 15.12C7.9184 14.9657 7.17953 14.6598 6.52085 14.22C5.86217 13.7801 5.29658 13.2148 4.85637 12.5564L5.10707 12.3888C5.52527 13.0143 6.06258 13.5513 6.68833 13.9692C7.31407 14.3871 8.016 14.6776 8.75402 14.8242C9.49205 14.9708 10.2517 14.9706 10.9897 14.8236C11.7276 14.6766 12.4294 14.3857 13.0549 13.9675C13.6804 13.5493 14.2174 13.012 14.6353 12.3862C15.0532 11.7605 15.3437 11.0586 15.4903 10.3205C15.6369 9.5825 15.6367 8.82283 15.4897 8.08488C15.3427 7.34694 15.0518 6.64517 14.6336 6.01965L14.8843 5.85204Z" fill="url(#paint12_linear_304_554)"/>
<path d="M13.6308 6.69007C13.961 7.1839 14.1906 7.73793 14.3067 8.32052C14.4227 8.90311 14.4229 9.50285 14.3072 10.0855C14.1914 10.6682 13.9621 11.2223 13.6322 11.7163C13.3023 12.2103 12.8783 12.6345 12.3845 12.9647C11.8906 13.2948 11.3366 13.5245 10.754 13.6405C10.1714 13.7566 9.57169 13.7568 8.98903 13.641C8.40638 13.5253 7.85223 13.2959 7.35822 12.966C6.86421 12.6361 6.44002 12.2122 6.10986 11.7183L6.29788 11.5926C6.61153 12.0618 7.01452 12.4645 7.48383 12.7779C7.95314 13.0913 8.47958 13.3092 9.0331 13.4192C9.58662 13.5291 10.1564 13.529 10.7098 13.4187C11.2633 13.3085 11.7896 13.0903 12.2588 12.7767C12.7279 12.463 13.1307 12.06 13.4441 11.5907C13.7575 11.1214 13.9754 10.595 14.0853 10.0414C14.1953 9.48792 14.1951 8.91816 14.0849 8.3647C13.9746 7.81124 13.7564 7.28492 13.4428 6.81578L13.6308 6.69007Z" fill="url(#paint13_linear_304_554)"/>
<path d="M14.8843 5.85202C14.4441 5.19358 13.8785 4.62829 13.2198 4.18843C12.5611 3.74857 11.8223 3.44276 11.0454 3.28844C10.2685 3.13413 9.46888 3.13435 8.69209 3.28907C7.91531 3.4438 7.1766 3.75002 6.51816 4.19023C5.85972 4.63045 5.29443 5.19604 4.85457 5.85472C4.41471 6.5134 4.10889 7.25227 3.95458 8.02913C3.80027 8.806 3.80048 9.60566 3.95521 10.3824C4.10994 11.1592 4.41615 11.8979 4.85637 12.5564L5.10707 12.3888C4.68886 11.7632 4.39796 11.0615 4.25097 10.3235C4.10397 9.58558 4.10377 8.82591 4.25037 8.08789C4.39696 7.34986 4.68749 6.64794 5.10536 6.02219C5.52322 5.39645 6.06025 4.85913 6.68577 4.44093C7.31129 4.02273 8.01306 3.73182 8.751 3.58483C9.48895 3.43784 10.2486 3.43763 10.9866 3.58423C11.7247 3.73083 12.4266 4.02135 13.0523 4.43922C13.6781 4.85709 14.2154 5.39411 14.6336 6.01963L14.8843 5.85202Z" fill="url(#paint14_linear_304_554)"/>
<path d="M13.6308 6.69008C13.3006 6.19625 12.8765 5.77228 12.3824 5.44239C11.8884 5.11249 11.3343 4.88313 10.7516 4.7674C10.169 4.65166 9.56924 4.65182 8.98665 4.76787C8.40406 4.88392 7.85003 5.11358 7.3562 5.44374C6.86237 5.7739 6.4384 6.19809 6.10851 6.6921C5.77861 7.18611 5.54925 7.74026 5.43352 8.32291C5.31778 8.90557 5.31794 9.50531 5.43399 10.0879C5.55004 10.6705 5.7797 11.2245 6.10986 11.7183L6.29788 11.5926C5.98423 11.1235 5.76605 10.5972 5.65581 10.0437C5.54556 9.49025 5.54541 8.9205 5.65536 8.36698C5.7653 7.81346 5.9832 7.28702 6.2966 6.81771C6.61 6.3484 7.01277 5.94541 7.48191 5.63176C7.95105 5.31811 8.47738 5.09993 9.03083 4.98969C9.58429 4.87944 10.154 4.87929 10.7076 4.98924C11.2611 5.09918 11.7875 5.31708 12.2568 5.63048C12.7261 5.94388 13.1291 6.34665 13.4428 6.81579L13.6308 6.69008Z" fill="url(#paint15_linear_304_554)"/>
<circle cx="9.87033" cy="9.2042" r="1.20627" transform="rotate(-33.7654 9.87033 9.2042)" fill="#53808F"/>
<path d="M12.8112 7.23803L16.1378 5.01399L11.8745 6.77603L12.8112 7.23803Z" fill="#53808F"/>
<path d="M3.35217 13.562L7.61548 11.8L6.67875 11.338L3.35217 13.562Z" fill="#53808F"/>
<path d="M63.7291 20.008V14.712H65.1851V20.008H63.7291ZM60.4491 23V21.736H62.0331V23H60.4491ZM60.4491 12.984V11.72H62.0331V12.984H60.4491ZM60.4491 12.984V11.72H62.0331V12.984H60.4491ZM65.1851 14.712H63.7291C63.7291 14.1573 63.5798 13.7307 63.2811 13.432C62.9825 13.1333 62.5665 12.984 62.0331 12.984V11.72C62.6518 11.72 63.1958 11.848 63.6651 12.104C64.1451 12.3493 64.5185 12.7013 64.7851 13.16C65.0518 13.608 65.1851 14.1253 65.1851 14.712ZM65.1851 19.992C65.1851 20.5893 65.0518 21.112 64.7851 21.56C64.5185 22.008 64.1451 22.36 63.6651 22.616C63.1958 22.872 62.6518 23 62.0331 23V21.736C62.5665 21.736 62.9825 21.5867 63.2811 21.288C63.5798 20.9787 63.7291 20.5467 63.7291 19.992H65.1851ZM59.4251 23V11.72H60.8811V23H59.4251ZM54.2663 25.984V24.72H55.8983V25.984H54.2663ZM54.2663 31.664V30.4H55.8983V31.664H54.2663ZM57.5943 28.672V27.712H59.0503V28.672H57.5943ZM59.0503 27.712H57.5943C57.5943 27.1573 57.4397 26.7307 57.1303 26.432C56.8317 26.1333 56.4157 25.984 55.8823 25.984V24.72C56.5117 24.72 57.061 24.848 57.5303 25.104C58.0103 25.3493 58.3837 25.7013 58.6503 26.16C58.917 26.608 59.0503 27.1253 59.0503 27.712ZM59.0503 28.656C59.0503 29.2533 58.917 29.776 58.6503 30.224C58.3837 30.672 58.0103 31.024 57.5303 31.28C57.061 31.536 56.5117 31.664 55.8823 31.664V30.4C56.4157 30.4 56.8317 30.2453 57.1303 29.936C57.4397 29.6267 57.5943 29.2 57.5943 28.656H59.0503ZM53.3223 36V24.72H54.7783V36H53.3223Z" fill="#EC4F0B"/>
<path d="M73.7229 23L71.6749 17.496H73.1629L75.2109 23H73.7229ZM70.3629 18.216V16.968H71.9949V18.216H70.3629ZM70.3629 12.984V11.72H71.9949V12.984H70.3629ZM73.6909 15.24V14.696H75.1469V15.24H73.6909ZM75.1469 14.712H73.6909C73.6909 14.1573 73.5362 13.7307 73.2269 13.432C72.9282 13.1333 72.5122 12.984 71.9789 12.984V11.72C72.6082 11.72 73.1576 11.848 73.6269 12.104C74.1069 12.3493 74.4802 12.7013 74.7469 13.16C75.0136 13.608 75.1469 14.1253 75.1469 14.712ZM75.1469 15.224C75.1469 15.8107 75.0136 16.3333 74.7469 16.792C74.4802 17.24 74.1069 17.592 73.6269 17.848C73.1576 18.0933 72.6082 18.216 71.9789 18.216V16.968C72.5122 16.968 72.9282 16.8133 73.2269 16.504C73.5362 16.1947 73.6909 15.768 73.6909 15.224H75.1469ZM69.4189 23V11.72H70.8749V23H69.4189ZM83.9935 20.248V14.456H85.4495V20.248H83.9935ZM79.1295 20.248V14.456H80.5855V20.248H79.1295ZM85.4495 14.472H83.9935C83.9935 13.9173 83.8388 13.4907 83.5295 13.192C83.2308 12.8933 82.8148 12.744 82.2815 12.744V11.48C82.9108 11.48 83.4602 11.608 83.9295 11.864C84.4095 12.1093 84.7828 12.4613 85.0495 12.92C85.3162 13.368 85.4495 13.8853 85.4495 14.472ZM79.1295 14.472C79.1295 13.8853 79.2628 13.368 79.5295 12.92C79.7962 12.4613 80.1695 12.1093 80.6495 11.864C81.1295 11.608 81.6788 11.48 82.2975 11.48V12.744C81.7642 12.744 81.3428 12.8933 81.0335 13.192C80.7348 13.4907 80.5855 13.9173 80.5855 14.472H79.1295ZM85.4495 20.232C85.4495 20.8293 85.3162 21.352 85.0495 21.8C84.7828 22.248 84.4095 22.6 83.9295 22.856C83.4602 23.112 82.9108 23.24 82.2815 23.24V21.976C82.8148 21.976 83.2308 21.8267 83.5295 21.528C83.8388 21.2187 83.9935 20.7867 83.9935 20.232H85.4495ZM79.1295 20.232H80.5855C80.5855 20.7867 80.7348 21.2187 81.0335 21.528C81.3428 21.8267 81.7642 21.976 82.2975 21.976V23.24C81.6788 23.24 81.1295 23.112 80.6495 22.856C80.1695 22.6 79.7962 22.248 79.5295 21.8C79.2628 21.352 79.1295 20.8293 79.1295 20.232ZM94.4716 23L89.9596 11.72H91.3836L95.8956 23H94.4716ZM89.6876 23V11.72H91.1436V23H89.6876ZM94.8556 23V11.72H96.3116V23H94.8556ZM101.56 23V21.736H105.992V23H101.56ZM101.8 18.024V16.728H105.032V18.024H101.8ZM100.744 11.72H102.2V23H100.744V11.72ZM101.72 11.72H105.832V12.984H101.72V11.72ZM61.3742 36V24.72H62.8302V36H61.3742ZM65.4773 33.264V27.456H66.9333V33.264H65.4773ZM65.4773 27.456C65.4773 26.8693 65.6107 26.352 65.8773 25.904C66.144 25.4453 66.5173 25.0933 66.9973 24.848C67.4773 24.592 68.0267 24.464 68.6453 24.464V25.728C68.112 25.728 67.6907 25.8773 67.3813 26.176C67.0827 26.4747 66.9333 26.9013 66.9333 27.456H65.4773ZM65.4773 33.248H66.9333C66.9333 33.8027 67.0827 34.2347 67.3813 34.544C67.6907 34.8427 68.112 34.992 68.6453 34.992V36.256C68.0267 36.256 67.4773 36.128 66.9973 35.872C66.5173 35.616 66.144 35.264 65.8773 34.816C65.6107 34.368 65.4773 33.8453 65.4773 33.248ZM70.5493 27.872C70.4853 27.2 70.2827 26.6773 69.9413 26.304C69.6107 25.92 69.1733 25.728 68.6293 25.728V24.464C69.536 24.464 70.272 24.7413 70.8373 25.296C71.4133 25.8507 71.76 26.6187 71.8773 27.6L70.5493 27.872ZM70.5493 32.848L71.8773 33.104C71.76 34.096 71.4133 34.8693 70.8373 35.424C70.272 35.9787 69.536 36.256 68.6293 36.256V34.992C69.1733 34.992 69.6107 34.8053 69.9413 34.432C70.2827 34.048 70.4853 33.52 70.5493 32.848ZM73.1392 25.984V24.72H79.7792V25.984H73.1392ZM75.7312 36V24.72H77.1872V36H75.7312ZM86.3781 33.264V24.72H87.8341V33.264H86.3781ZM81.5461 33.264V24.72H83.0021V33.264H81.5461ZM87.8341 33.248C87.8341 33.8347 87.7007 34.3573 87.4341 34.816C87.1674 35.264 86.7941 35.616 86.3141 35.872C85.8447 36.1173 85.3007 36.24 84.6821 36.24V34.976C85.2154 34.976 85.6314 34.8267 85.9301 34.528C86.2287 34.2187 86.3781 33.792 86.3781 33.248H87.8341ZM81.5461 33.248H83.0021C83.0021 33.792 83.1514 34.2187 83.4501 34.528C83.7594 34.8267 84.1807 34.976 84.7141 34.976V36.24C84.0954 36.24 83.5461 36.1173 83.0661 35.872C82.5861 35.616 82.2127 35.264 81.9461 34.816C81.6794 34.3573 81.5461 33.8347 81.5461 33.248ZM94.7732 36L92.7252 30.496H94.2132L96.2612 36H94.7732ZM91.4132 31.216V29.968H93.0452V31.216H91.4132ZM91.4132 25.984V24.72H93.0452V25.984H91.4132ZM94.7412 28.24V27.696H96.1972V28.24H94.7412ZM96.1972 27.712H94.7412C94.7412 27.1573 94.5865 26.7307 94.2772 26.432C93.9785 26.1333 93.5625 25.984 93.0292 25.984V24.72C93.6585 24.72 94.2079 24.848 94.6772 25.104C95.1572 25.3493 95.5305 25.7013 95.7972 26.16C96.0639 26.608 96.1972 27.1253 96.1972 27.712ZM96.1972 28.224C96.1972 28.8107 96.0639 29.3333 95.7972 29.792C95.5305 30.24 95.1572 30.592 94.6772 30.848C94.2079 31.0933 93.6585 31.216 93.0292 31.216V29.968C93.5625 29.968 93.9785 29.8133 94.2772 29.504C94.5865 29.1947 94.7412 28.768 94.7412 28.224H96.1972ZM90.4692 36V24.72H91.9252V36H90.4692ZM99.3958 36V34.736H103.828V36H99.3958ZM99.6358 31.024V29.728H102.868V31.024H99.6358ZM98.5798 24.72H100.036V36H98.5798V24.72ZM99.5558 24.72H103.668V25.984H99.5558V24.72ZM110.704 33.472C110.704 33.0773 110.592 32.7307 110.368 32.432C110.144 32.1227 109.856 31.8347 109.504 31.568C109.152 31.3013 108.773 31.0293 108.368 30.752C107.973 30.4747 107.6 30.1707 107.248 29.84C106.896 29.5093 106.608 29.136 106.384 28.72C106.16 28.2933 106.048 27.8027 106.048 27.248H107.504C107.504 27.632 107.616 27.9787 107.84 28.288C108.064 28.5867 108.352 28.8747 108.704 29.152C109.056 29.4187 109.429 29.6907 109.824 29.968C110.229 30.2453 110.608 30.5493 110.96 30.88C111.312 31.2 111.6 31.5733 111.824 32C112.048 32.416 112.16 32.9067 112.16 33.472H110.704ZM106.048 27.28C106.048 26.6933 106.181 26.192 106.448 25.776C106.714 25.36 107.088 25.04 107.568 24.816C108.048 24.592 108.597 24.48 109.216 24.48V25.728C108.682 25.728 108.261 25.8667 107.952 26.144C107.653 26.4213 107.504 26.8 107.504 27.28H106.048ZM112.16 33.44C112.16 34.016 112.026 34.5173 111.76 34.944C111.493 35.36 111.12 35.68 110.64 35.904C110.17 36.128 109.621 36.24 108.992 36.24V34.976C109.525 34.976 109.941 34.8427 110.24 34.576C110.549 34.2987 110.704 33.92 110.704 33.44H112.16ZM110.72 27.136C110.666 26.656 110.496 26.304 110.208 26.08C109.93 25.8453 109.6 25.728 109.216 25.728V24.48C109.717 24.48 110.17 24.5813 110.576 24.784C110.981 24.9867 111.317 25.264 111.584 25.616C111.85 25.968 112.016 26.384 112.08 26.864L110.72 27.136ZM107.072 32.832C107.136 33.504 107.333 34.032 107.664 34.416C108.005 34.7893 108.448 34.976 108.992 34.976V36.24C108.085 36.24 107.344 35.9627 106.768 35.408C106.202 34.8533 105.861 34.0853 105.744 33.104L107.072 32.832Z" fill="#203A43"/>
<defs>
<linearGradient id="paint0_linear_304_554" x1="47.0132" y1="37.8961" x2="38.748" y2="46.6821" gradientUnits="userSpaceOnUse">
<stop offset="0.674044" stop-color="#EC4F0B"/>
<stop offset="1" stop-color="#D9D9D9" stop-opacity="0"/>
</linearGradient>
<linearGradient id="paint1_linear_304_554" x1="44.8818" y1="37.9612" x2="38.6829" y2="44.5507" gradientUnits="userSpaceOnUse">
<stop offset="0.674044" stop-color="#EC4F0B"/>
<stop offset="1" stop-color="#D9D9D9" stop-opacity="0"/>
</linearGradient>
<linearGradient id="paint2_linear_304_554" x1="29.962" y1="38.4169" x2="38.2272" y2="29.6309" gradientUnits="userSpaceOnUse">
<stop offset="0.706033" stop-color="#203A43"/>
<stop offset="1" stop-color="#D9D9D9" stop-opacity="0"/>
</linearGradient>
<linearGradient id="paint3_linear_304_554" x1="32.0934" y1="38.3518" x2="38.2923" y2="31.7623" gradientUnits="userSpaceOnUse">
<stop offset="0.706033" stop-color="#203A43"/>
<stop offset="1" stop-color="#D9D9D9" stop-opacity="0"/>
</linearGradient>
<linearGradient id="paint4_linear_304_554" x1="12.5284" y1="46.2016" x2="1.68025" y2="40.9266" gradientUnits="userSpaceOnUse">
<stop offset="0.674044" stop-color="#EC4F0B"/>
<stop offset="1" stop-color="#D9D9D9" stop-opacity="0"/>
</linearGradient>
<linearGradient id="paint5_linear_304_554" x1="11.8317" y1="44.1862" x2="3.69564" y2="40.2299" gradientUnits="userSpaceOnUse">
<stop offset="0.674044" stop-color="#EC4F0B"/>
<stop offset="1" stop-color="#D9D9D9" stop-opacity="0"/>
</linearGradient>
<linearGradient id="paint6_linear_304_554" x1="6.95528" y1="30.0785" x2="17.8034" y2="35.3535" gradientUnits="userSpaceOnUse">
<stop offset="0.650922" stop-color="#203A43"/>
<stop offset="1" stop-color="#E0E0E0" stop-opacity="0"/>
</linearGradient>
<linearGradient id="paint7_linear_304_554" x1="7.65192" y1="32.0939" x2="15.788" y2="36.0501" gradientUnits="userSpaceOnUse">
<stop offset="0.650922" stop-color="#203A43"/>
<stop offset="1" stop-color="#E0E0E0" stop-opacity="0"/>
</linearGradient>
<linearGradient id="paint8_linear_304_554" x1="42.6568" y1="16.6613" x2="31.1142" y2="13.1573" gradientUnits="userSpaceOnUse">
<stop offset="0.674044" stop-color="#203A43"/>
<stop offset="1" stop-color="#E0E0E0" stop-opacity="0"/>
</linearGradient>
<linearGradient id="paint9_linear_304_554" x1="41.6519" y1="14.7804" x2="32.995" y2="12.1525" gradientUnits="userSpaceOnUse">
<stop offset="0.674044" stop-color="#203A43"/>
<stop offset="1" stop-color="#E0E0E0" stop-opacity="0"/>
</linearGradient>
<linearGradient id="paint10_linear_304_554" x1="34.6182" y1="1.61475" x2="46.1607" y2="5.11874" gradientUnits="userSpaceOnUse">
<stop offset="0.706033" stop-color="#EC4F0B"/>
<stop offset="1" stop-color="#E0E0E0" stop-opacity="0"/>
</linearGradient>
<linearGradient id="paint11_linear_304_554" x1="35.623" y1="3.49556" x2="44.2799" y2="6.12355" gradientUnits="userSpaceOnUse">
<stop offset="0.706033" stop-color="#EC4F0B"/>
<stop offset="1" stop-color="#E0E0E0" stop-opacity="0"/>
</linearGradient>
<linearGradient id="paint12_linear_304_554" x1="18.2365" y1="10.866" x2="8.20854" y2="17.5704" gradientUnits="userSpaceOnUse">
<stop offset="0.674044" stop-color="#203A43"/>
<stop offset="1" stop-color="#E0E0E0" stop-opacity="0"/>
</linearGradient>
<linearGradient id="paint13_linear_304_554" x1="16.1449" y1="10.4505" x2="8.62399" y2="15.4788" gradientUnits="userSpaceOnUse">
<stop offset="0.674044" stop-color="#203A43"/>
<stop offset="1" stop-color="#E0E0E0" stop-opacity="0"/>
</linearGradient>
<linearGradient id="paint14_linear_304_554" x1="1.50419" y1="7.54241" x2="11.5321" y2="0.838056" gradientUnits="userSpaceOnUse">
<stop offset="0.706033" stop-color="#EC4F0B"/>
<stop offset="1" stop-color="#E0E0E0" stop-opacity="0"/>
</linearGradient>
<linearGradient id="paint15_linear_304_554" x1="3.59573" y1="7.95787" x2="11.1167" y2="2.92961" gradientUnits="userSpaceOnUse">
<stop offset="0.706033" stop-color="#EC4F0B"/>
<stop offset="1" stop-color="#E0E0E0" stop-opacity="0"/>
</linearGradient>
</defs>
</svg>
