<svg width="114" height="48" viewBox="0 0 114 48" fill="none" xmlns="http://www.w3.org/2000/svg">
<path d="M42.6202 33.7635C43.1971 34.3062 43.6615 34.9572 43.9868 35.6794C44.3121 36.4016 44.492 37.1807 44.5161 37.9724C44.5403 38.7641 44.4083 39.5528 44.1277 40.2934C43.8471 41.0341 43.4233 41.7122 42.8806 42.2891C42.3379 42.866 41.6869 43.3304 40.9648 43.6557C40.2426 43.981 39.4634 44.1609 38.6718 44.1851C37.8801 44.2092 37.0914 44.0773 36.3507 43.7966C35.6101 43.516 34.9319 43.0923 34.355 42.5496L34.5616 42.3299C35.1097 42.8455 35.7539 43.248 36.4576 43.5146C37.1612 43.7812 37.9105 43.9066 38.6626 43.8836C39.4146 43.8607 40.1548 43.6898 40.8409 43.3807C41.527 43.0717 42.1454 42.6306 42.661 42.0825C43.1765 41.5345 43.5791 40.8902 43.8457 40.1866C44.1123 39.483 44.2377 38.7337 44.2147 37.9816C44.1917 37.2295 44.0209 36.4893 43.7118 35.8033C43.4028 35.1172 42.9616 34.4988 42.4136 33.9832L42.6202 33.7635Z" fill="#FFFDFA"/>
<path d="M41.5871 34.8618C42.0197 35.2688 42.368 35.7571 42.612 36.2987C42.856 36.8403 42.9909 37.4247 43.009 38.0185C43.0272 38.6122 42.9282 39.2037 42.7177 39.7592C42.5072 40.3147 42.1894 40.8233 41.7824 41.256C41.3754 41.6887 40.8871 42.0369 40.3455 42.2809C39.8039 42.5249 39.2195 42.6598 38.6257 42.6779C38.032 42.6961 37.4405 42.5971 36.885 42.3866C36.3295 42.1762 35.8208 41.8583 35.3882 41.4513L35.5431 41.2866C35.9542 41.6733 36.4374 41.9752 36.9651 42.1751C37.4928 42.3751 38.0548 42.4691 38.6188 42.4519C39.1829 42.4346 39.738 42.3065 40.2526 42.0747C40.7671 41.8429 41.231 41.5121 41.6176 41.101C42.0043 40.69 42.3062 40.2068 42.5062 39.6791C42.7061 39.1514 42.8002 38.5894 42.7829 38.0254C42.7657 37.4613 42.6376 36.9061 42.4058 36.3916C42.174 35.8771 41.8431 35.4132 41.4321 35.0265L41.5871 34.8618Z" fill="#FFFDFA"/>
<path d="M42.6202 33.7635C42.0433 33.2208 41.3652 32.7971 40.6245 32.5165C39.8838 32.2358 39.0952 32.1038 38.3035 32.128C37.5118 32.1522 36.7326 32.3321 36.0105 32.6574C35.2883 32.9827 34.6373 33.447 34.0946 34.0239C33.5519 34.6008 33.1282 35.279 32.8475 36.0197C32.5669 36.7603 32.4349 37.549 32.4591 38.3407C32.4833 39.1324 32.6632 39.9115 32.9885 40.6337C33.3138 41.3558 33.7781 42.0069 34.355 42.5496L34.5617 42.3299C34.0136 41.8143 33.5725 41.1959 33.2634 40.5098C32.9544 39.8238 32.7835 39.0836 32.7605 38.3315C32.7376 37.5794 32.8629 36.8301 33.1295 36.1265C33.3961 35.4229 33.7987 34.7786 34.3143 34.2306C34.8298 33.6825 35.4483 33.2414 36.1343 32.9323C36.8204 32.6233 37.5606 32.4524 38.3127 32.4295C39.0648 32.4065 39.814 32.5319 40.5177 32.7985C41.2213 33.065 41.8655 33.4676 42.4136 33.9832L42.6202 33.7635Z" fill="#FFFDFA"/>
<path d="M41.5871 34.8618C41.1544 34.4548 40.6458 34.1369 40.0903 33.9265C39.5348 33.716 38.9433 33.617 38.3495 33.6352C37.7558 33.6533 37.1714 33.7882 36.6298 34.0322C36.0882 34.2761 35.5999 34.6244 35.1929 35.0571C34.7858 35.4898 34.468 35.9984 34.2576 36.5539C34.0471 37.1094 33.9481 37.7009 33.9662 38.2946C33.9844 38.8884 34.1193 39.4728 34.3633 40.0144C34.6072 40.556 34.9555 41.0443 35.3882 41.4513L35.5431 41.2866C35.1321 40.8999 34.8013 40.436 34.5695 39.9215C34.3377 39.407 34.2095 38.8518 34.1923 38.2877C34.1751 37.7237 34.2691 37.1617 34.4691 36.634C34.669 36.1063 34.9709 35.6231 35.3576 35.2121C35.7443 34.801 36.2081 34.4702 36.7227 34.2384C37.2372 34.0066 37.7924 33.8784 38.3564 33.8612C38.9205 33.844 39.4824 33.938 40.0102 34.138C40.5379 34.3379 41.0211 34.6398 41.4321 35.0265L41.5871 34.8618Z" fill="#FFFDFA"/>
<circle cx="38.4876" cy="38.1565" r="1.20627" transform="rotate(-46.7496 38.4876 38.1565)" fill="#FFFDFA"/>
<path d="M40.9116 35.5799L43.6534 32.6653L39.895 35.3402L40.9116 35.5799Z" fill="#FFFDFA"/>
<path d="M33.1152 43.8675L36.8736 41.1926L35.8571 40.9529L33.1152 43.8675Z" fill="#FFFDFA"/>
<path d="M15.1659 40.7776C14.8195 41.4899 14.3363 42.127 13.7437 42.6525C13.1511 43.1781 12.4608 43.5817 11.7122 43.8405C10.9636 44.0992 10.1714 44.208 9.38077 44.1606C8.59015 44.1132 7.8166 43.9105 7.10431 43.5641C6.39201 43.2178 5.75491 42.7345 5.22938 42.1419C4.70385 41.5493 4.30018 40.859 4.04143 40.1105C3.78267 39.3619 3.6739 38.5696 3.72131 37.779C3.76873 36.9884 3.9714 36.2149 4.31776 35.5026L4.58897 35.6344C4.25992 36.3111 4.06738 37.046 4.02234 37.7971C3.97729 38.5482 4.08063 39.3008 4.32645 40.0119C4.57226 40.7231 4.95575 41.3789 5.455 41.9418C5.95425 42.5048 6.5595 42.9639 7.23618 43.2929C7.91287 43.622 8.64773 43.8145 9.39883 43.8596C10.1499 43.9046 10.9025 43.8013 11.6137 43.5555C12.3248 43.3096 12.9806 42.9262 13.5436 42.4269C14.1065 41.9276 14.5656 41.3224 14.8947 40.6457L15.1659 40.7776Z" fill="#FFFDFA"/>
<path d="M13.8099 40.1182C13.5501 40.6524 13.1876 41.1302 12.7432 41.5244C12.2988 41.9185 11.781 42.2213 11.2196 42.4154C10.6582 42.6094 10.064 42.691 9.47103 42.6554C8.87806 42.6199 8.29791 42.4679 7.76368 42.2081C7.22946 41.9483 6.75163 41.5859 6.35749 41.1414C5.96334 40.697 5.66059 40.1793 5.46652 39.6178C5.27246 39.0564 5.19088 38.4622 5.22644 37.8693C5.262 37.2763 5.414 36.6961 5.67378 36.1619L5.87718 36.2608C5.63039 36.7683 5.48599 37.3195 5.45221 37.8828C5.41842 38.4461 5.49593 39.0106 5.68029 39.544C5.86465 40.0773 6.15226 40.5692 6.5267 40.9914C6.90114 41.4136 7.35508 41.7579 7.86259 42.0047C8.3701 42.2515 8.92125 42.3959 9.48457 42.4297C10.0479 42.4635 10.6124 42.386 11.1457 42.2016C11.6791 42.0172 12.1709 41.7296 12.5931 41.3552C13.0154 40.9807 13.3597 40.5268 13.6065 40.0193L13.8099 40.1182Z" fill="#FFFDFA"/>
<path d="M15.1659 40.7776C15.5123 40.0653 15.7149 39.2917 15.7623 38.5011C15.8098 37.7105 15.701 36.9183 15.4422 36.1697C15.1835 35.4211 14.7798 34.7308 14.2543 34.1382C13.7287 33.5456 13.0916 33.0624 12.3793 32.716C11.667 32.3696 10.8935 32.167 10.1029 32.1195C9.31225 32.0721 8.52003 32.1809 7.77144 32.4397C7.02286 32.6984 6.33256 33.1021 5.73998 33.6276C5.1474 34.1531 4.66413 34.7902 4.31776 35.5025L4.58897 35.6344C4.91801 34.9577 5.37712 34.3525 5.94007 33.8532C6.50303 33.354 7.1588 32.9705 7.86996 32.7247C8.58112 32.4789 9.33373 32.3755 10.0848 32.4206C10.8359 32.4656 11.5708 32.6582 12.2475 32.9872C12.9242 33.3162 13.5294 33.7754 14.0287 34.3383C14.5279 34.9013 14.9114 35.557 15.1572 36.2682C15.403 36.9794 15.5064 37.732 15.4613 38.4831C15.4163 39.2342 15.2237 39.969 14.8947 40.6457L15.1659 40.7776Z" fill="#FFFDFA"/>
<path d="M13.8099 40.1182C14.0696 39.584 14.2217 39.0038 14.2572 38.4109C14.2928 37.8179 14.2112 37.2237 14.0171 36.6623C13.8231 36.1008 13.5203 35.5831 13.1262 35.1387C12.732 34.6943 12.2542 34.3318 11.72 34.072C11.1857 33.8123 10.6056 33.6602 10.0126 33.6247C9.41965 33.5891 8.82548 33.6707 8.26404 33.8648C7.7026 34.0588 7.18488 34.3616 6.74044 34.7557C6.29601 35.1499 5.93355 35.6277 5.67378 36.1619L5.87718 36.2608C6.12397 35.7533 6.4683 35.2994 6.89051 34.925C7.31273 34.5505 7.80456 34.2629 8.33793 34.0785C8.8713 33.8942 9.43576 33.8167 9.99908 33.8505C10.5624 33.8842 11.1135 34.0286 11.6211 34.2754C12.1286 34.5222 12.5825 34.8665 12.9569 35.2888C13.3314 35.711 13.619 36.2028 13.8034 36.7362C13.9877 37.2695 14.0652 37.834 14.0314 38.3973C13.9977 38.9606 13.8533 39.5118 13.6065 40.0193L13.8099 40.1182Z" fill="#FFFDFA"/>
<circle cx="9.74183" cy="38.1401" r="1.20627" transform="rotate(25.9319 9.74183 38.1401)" fill="#FFFDFA"/>
<path d="M12.9232 39.6871L16.5219 41.437L12.8495 38.6452L12.9232 39.6871Z" fill="#FFFDFA"/>
<path d="M2.69055 34.7113L6.36296 37.503L6.2892 36.4612L2.69055 34.7113Z" fill="#FFFDFA"/>
<path d="M12 11.0001C12 11.0001 20 18.8001 24.5 18.8001C29 18.8001 37 11.0001 37 11.0001C37 11.0001 29.5 19.3201 29.5 24.0001C29.5 28.6801 37 37.0001 37 37.0001C37 37.0001 29 29.2001 24.5 29.2001C20 29.2001 12 37.0001 12 37.0001C12 37.0001 19.5 28.6801 19.5 24.0001C19.5 19.3201 12 11.0001 12 11.0001Z" fill="#FFFDFA"/>
<path d="M44.4087 10.89C44.1787 11.6479 43.8016 12.3531 43.299 12.9652C42.7964 13.5774 42.1781 14.0846 41.4795 14.4578C40.7809 14.831 40.0157 15.063 39.2274 15.1404C38.4392 15.2179 37.6434 15.1394 36.8855 14.9093C36.1276 14.6792 35.4224 14.3021 34.8103 13.7995C34.1981 13.2969 33.691 12.6787 33.3177 11.9801C32.9445 11.2815 32.7125 10.5162 32.6351 9.72797C32.5576 8.93972 32.6361 8.14393 32.8662 7.38604L33.1548 7.47364C32.9362 8.19364 32.8616 8.94964 32.9352 9.69847C33.0088 10.4473 33.2292 11.1743 33.5837 11.838C33.9383 12.5017 34.4201 13.089 35.0016 13.5665C35.5832 14.0439 36.2531 14.4022 36.9731 14.6207C37.6931 14.8393 38.4491 14.9139 39.1979 14.8403C39.9468 14.7667 40.6738 14.5464 41.3374 14.1918C42.0011 13.8372 42.5884 13.3554 43.0659 12.7739C43.5434 12.1923 43.9016 11.5224 44.1202 10.8024L44.4087 10.89Z" fill="#FFFDFA"/>
<path d="M42.9659 10.452C42.7934 11.0204 42.5106 11.5493 42.1336 12.0084C41.7567 12.4675 41.293 12.8479 40.769 13.1278C40.2451 13.4077 39.6711 13.5817 39.0799 13.6398C38.4888 13.6979 37.8919 13.639 37.3235 13.4665C36.7551 13.2939 36.2262 13.0111 35.7671 12.6341C35.308 12.2572 34.9276 11.7935 34.6477 11.2696C34.3678 10.7456 34.1938 10.1717 34.1357 9.58047C34.0776 8.98928 34.1365 8.39244 34.309 7.82402L34.5255 7.88972C34.3615 8.42972 34.3056 8.99672 34.3608 9.55835C34.416 10.12 34.5812 10.6652 34.8472 11.163C35.1131 11.6607 35.4744 12.1012 35.9106 12.4593C36.3468 12.8174 36.8492 13.0861 37.3892 13.25C37.9292 13.414 38.4962 13.4699 39.0578 13.4147C39.6194 13.3595 40.1647 13.1943 40.6625 12.9283C41.1602 12.6624 41.6007 12.3011 41.9588 11.8649C42.3169 11.4287 42.5856 10.9263 42.7495 10.3863L42.9659 10.452Z" fill="#FFFDFA"/>
<path d="M44.4087 10.89C44.6388 10.1321 44.7174 9.33633 44.6399 8.54809C44.5624 7.75984 44.3305 6.99457 43.9572 6.29597C43.584 5.59737 43.0768 4.97912 42.4647 4.47653C41.8525 3.97393 41.1474 3.59683 40.3895 3.36676C39.6316 3.13668 38.8358 3.05814 38.0475 3.13561C37.2593 3.21308 36.494 3.44505 35.7954 3.81827C35.0968 4.1915 34.4786 4.69867 33.976 5.31082C33.4734 5.92298 33.0963 6.62813 32.8662 7.38603L33.1548 7.47363C33.3734 6.75363 33.7316 6.08373 34.2091 5.50218C34.6865 4.92063 35.2739 4.43882 35.9375 4.08426C36.6012 3.7297 37.3282 3.50933 38.077 3.43573C38.8259 3.36213 39.5819 3.43675 40.3019 3.65532C41.0219 3.87389 41.6918 4.23214 42.2733 4.7096C42.8549 5.18707 43.3367 5.7744 43.6912 6.43807C44.0458 7.10174 44.2662 7.82875 44.3398 8.57758C44.4134 9.32642 44.3388 10.0824 44.1202 10.8024L44.4087 10.89Z" fill="#FFFDFA"/>
<path d="M42.9659 10.452C43.1385 9.88359 43.1974 9.28675 43.1393 8.69556C43.0812 8.10438 42.9072 7.53042 42.6273 7.00648C42.3474 6.48253 41.967 6.01884 41.5079 5.6419C41.0488 5.26495 40.5199 4.98212 39.9515 4.80957C39.3831 4.63701 38.7862 4.5781 38.195 4.63621C37.6038 4.69431 37.0299 4.86829 36.5059 5.1482C35.982 5.42812 35.5183 5.8085 35.1414 6.26762C34.7644 6.72673 34.4816 7.2556 34.309 7.82402L34.5255 7.88972C34.6894 7.34972 34.9581 6.8473 35.3162 6.41114C35.6743 5.97497 36.1148 5.61362 36.6125 5.3477C37.1103 5.08177 37.6555 4.91649 38.2172 4.8613C38.7788 4.8061 39.3458 4.86206 39.8858 5.02599C40.4258 5.18992 40.9282 5.4586 41.3644 5.8167C41.8005 6.1748 42.1619 6.6153 42.4278 7.11305C42.6937 7.6108 42.859 8.15606 42.9142 8.71769C42.9694 9.27931 42.9134 9.84631 42.7495 10.3863L42.9659 10.452Z" fill="#FFFDFA"/>
<circle cx="38.6375" cy="9.13801" r="1.20627" transform="rotate(16.8868 38.6375 9.13801)" fill="#FFFDFA"/>
<path d="M42.0226 10.1657L45.8516 11.328L41.7859 9.14835L42.0226 10.1657Z" fill="#FFFDFA"/>
<path d="M31.1348 6.86045L35.2005 9.04013L34.9639 8.02283L31.1348 6.86045Z" fill="#FFFDFA"/>
<path d="M14.8843 5.85207C15.3245 6.51051 15.6307 7.24922 15.7855 8.026C15.9402 8.80279 15.9404 9.60244 15.7861 10.3793C15.6318 11.1562 15.326 11.895 14.8861 12.5537C14.4462 13.2124 13.881 13.778 13.2225 14.2182C12.5641 14.6584 11.8254 14.9646 11.0486 15.1194C10.2718 15.2741 9.47214 15.2743 8.69527 15.12C7.9184 14.9657 7.17953 14.6599 6.52085 14.22C5.86217 13.7802 5.29658 13.2149 4.85637 12.5564L5.10707 12.3888C5.52527 13.0143 6.06258 13.5514 6.68833 13.9692C7.31407 14.3871 8.016 14.6776 8.75402 14.8242C9.49205 14.9708 10.2517 14.9706 10.9897 14.8236C11.7276 14.6766 12.4294 14.3857 13.0549 13.9675C13.6804 13.5493 14.2174 13.012 14.6353 12.3863C15.0532 11.7605 15.3437 11.0586 15.4903 10.3206C15.6369 9.58253 15.6367 8.82286 15.4897 8.08491C15.3427 7.34697 15.0518 6.6452 14.6336 6.01968L14.8843 5.85207Z" fill="#FFFDFA"/>
<path d="M13.6308 6.6901C13.961 7.18393 14.1906 7.73796 14.3067 8.32055C14.4227 8.90314 14.4229 9.50288 14.3072 10.0855C14.1914 10.6682 13.9621 11.2223 13.6322 11.7163C13.3023 12.2104 12.8783 12.6345 12.3845 12.9647C11.8906 13.2949 11.3366 13.5245 10.754 13.6406C10.1714 13.7566 9.57169 13.7568 8.98903 13.641C8.40638 13.5253 7.85223 13.296 7.35822 12.9661C6.86421 12.6362 6.44002 12.2122 6.10986 11.7184L6.29788 11.5927C6.61153 12.0618 7.01452 12.4646 7.48383 12.778C7.95314 13.0914 8.47958 13.3093 9.0331 13.4192C9.58662 13.5292 10.1564 13.529 10.7098 13.4188C11.2633 13.3085 11.7896 13.0903 12.2588 12.7767C12.7279 12.463 13.1307 12.06 13.4441 11.5907C13.7575 11.1214 13.9754 10.595 14.0853 10.0415C14.1953 9.48795 14.1951 8.91819 14.0849 8.36473C13.9746 7.81127 13.7564 7.28495 13.4428 6.81581L13.6308 6.6901Z" fill="#FFFDFA"/>
<path d="M14.8843 5.85206C14.4441 5.19361 13.8785 4.62832 13.2198 4.18846C12.5611 3.7486 11.8223 3.44279 11.0454 3.28847C10.2685 3.13416 9.46888 3.13438 8.69209 3.28911C7.91531 3.44383 7.1766 3.75005 6.51816 4.19026C5.85972 4.63048 5.29443 5.19607 4.85457 5.85475C4.41471 6.51343 4.10889 7.2523 3.95458 8.02917C3.80027 8.80603 3.80048 9.60569 3.95521 10.3825C4.10994 11.1593 4.41615 11.898 4.85637 12.5564L5.10707 12.3888C4.68886 11.7633 4.39796 11.0615 4.25097 10.3236C4.10397 9.58562 4.10377 8.82594 4.25037 8.08792C4.39696 7.34989 4.68749 6.64797 5.10536 6.02222C5.52322 5.39648 6.06025 4.85916 6.68577 4.44096C7.31129 4.02276 8.01306 3.73185 8.751 3.58486C9.48895 3.43787 10.2486 3.43767 10.9866 3.58426C11.7247 3.73086 12.4266 4.02138 13.0523 4.43925C13.6781 4.85712 14.2154 5.39414 14.6336 6.01966L14.8843 5.85206Z" fill="#FFFDFA"/>
<path d="M13.6308 6.69011C13.3006 6.19628 12.8765 5.77231 12.3824 5.44242C11.8884 5.11252 11.3343 4.88316 10.7516 4.76743C10.169 4.65169 9.56924 4.65185 8.98665 4.7679C8.40406 4.88395 7.85003 5.11361 7.3562 5.44377C6.86237 5.77393 6.4384 6.19812 6.10851 6.69213C5.77861 7.18614 5.54925 7.74029 5.43352 8.32294C5.31778 8.9056 5.31794 9.50534 5.43399 10.0879C5.55004 10.6705 5.7797 11.2245 6.10986 11.7184L6.29788 11.5927C5.98423 11.1235 5.76605 10.5972 5.65581 10.0437C5.54556 9.49028 5.54541 8.92053 5.65536 8.36701C5.7653 7.81349 5.9832 7.28705 6.2966 6.81774C6.61 6.34843 7.01277 5.94544 7.48191 5.63179C7.95105 5.31814 8.47738 5.09996 9.03083 4.98972C9.58429 4.87947 10.154 4.87932 10.7076 4.98927C11.2611 5.09921 11.7875 5.31711 12.2568 5.63051C12.7261 5.94391 13.1291 6.34668 13.4428 6.81582L13.6308 6.69011Z" fill="#FFFDFA"/>
<circle cx="9.87033" cy="9.20425" r="1.20627" transform="rotate(-33.7654 9.87033 9.20425)" fill="#FFFDFA"/>
<path d="M12.8112 7.23805L16.1378 5.01401L11.8745 6.77604L12.8112 7.23805Z" fill="#FFFDFA"/>
<path d="M3.35217 13.5621L7.61548 11.8L6.67875 11.338L3.35217 13.5621Z" fill="#FFFDFA"/>
<path d="M63.7291 20.0081V14.7121H65.1851V20.0081H63.7291ZM60.4491 23.0001V21.7361H62.0331V23.0001H60.4491ZM60.4491 12.9841V11.7201H62.0331V12.9841H60.4491ZM60.4491 12.9841V11.7201H62.0331V12.9841H60.4491ZM65.1851 14.7121H63.7291C63.7291 14.1574 63.5798 13.7307 63.2811 13.4321C62.9825 13.1334 62.5665 12.9841 62.0331 12.9841V11.7201C62.6518 11.7201 63.1958 11.8481 63.6651 12.1041C64.1451 12.3494 64.5185 12.7014 64.7851 13.1601C65.0518 13.6081 65.1851 14.1254 65.1851 14.7121ZM65.1851 19.9921C65.1851 20.5894 65.0518 21.1121 64.7851 21.5601C64.5185 22.0081 64.1451 22.3601 63.6651 22.6161C63.1958 22.8721 62.6518 23.0001 62.0331 23.0001V21.7361C62.5665 21.7361 62.9825 21.5867 63.2811 21.2881C63.5798 20.9787 63.7291 20.5467 63.7291 19.9921H65.1851ZM59.4251 23.0001V11.7201H60.8811V23.0001H59.4251ZM73.7229 23.0001L71.6749 17.4961H73.1629L75.2109 23.0001H73.7229ZM70.3629 18.2161V16.9681H71.9949V18.2161H70.3629ZM70.3629 12.9841V11.7201H71.9949V12.9841H70.3629ZM73.6909 15.2401V14.6961H75.1469V15.2401H73.6909ZM75.1469 14.7121H73.6909C73.6909 14.1574 73.5362 13.7307 73.2269 13.4321C72.9282 13.1334 72.5122 12.9841 71.9789 12.9841V11.7201C72.6082 11.7201 73.1576 11.8481 73.6269 12.1041C74.1069 12.3494 74.4802 12.7014 74.7469 13.1601C75.0136 13.6081 75.1469 14.1254 75.1469 14.7121ZM75.1469 15.2241C75.1469 15.8107 75.0136 16.3334 74.7469 16.7921C74.4802 17.2401 74.1069 17.5921 73.6269 17.8481C73.1576 18.0934 72.6082 18.2161 71.9789 18.2161V16.9681C72.5122 16.9681 72.9282 16.8134 73.2269 16.5041C73.5362 16.1947 73.6909 15.7681 73.6909 15.2241H75.1469ZM69.4189 23.0001V11.7201H70.8749V23.0001H69.4189ZM83.9935 20.2481V14.4561H85.4495V20.2481H83.9935ZM79.1295 20.2481V14.4561H80.5855V20.2481H79.1295ZM85.4495 14.4721H83.9935C83.9935 13.9174 83.8388 13.4907 83.5295 13.1921C83.2308 12.8934 82.8148 12.7441 82.2815 12.7441V11.4801C82.9108 11.4801 83.4602 11.6081 83.9295 11.8641C84.4095 12.1094 84.7828 12.4614 85.0495 12.9201C85.3162 13.3681 85.4495 13.8854 85.4495 14.4721ZM79.1295 14.4721C79.1295 13.8854 79.2628 13.3681 79.5295 12.9201C79.7962 12.4614 80.1695 12.1094 80.6495 11.8641C81.1295 11.6081 81.6788 11.4801 82.2975 11.4801V12.7441C81.7642 12.7441 81.3428 12.8934 81.0335 13.1921C80.7348 13.4907 80.5855 13.9174 80.5855 14.4721H79.1295ZM85.4495 20.2321C85.4495 20.8294 85.3162 21.3521 85.0495 21.8001C84.7828 22.2481 84.4095 22.6001 83.9295 22.8561C83.4602 23.1121 82.9108 23.2401 82.2815 23.2401V21.9761C82.8148 21.9761 83.2308 21.8267 83.5295 21.5281C83.8388 21.2187 83.9935 20.7867 83.9935 20.2321H85.4495ZM79.1295 20.2321H80.5855C80.5855 20.7867 80.7348 21.2187 81.0335 21.5281C81.3428 21.8267 81.7642 21.9761 82.2975 21.9761V23.2401C81.6788 23.2401 81.1295 23.1121 80.6495 22.8561C80.1695 22.6001 79.7962 22.2481 79.5295 21.8001C79.2628 21.3521 79.1295 20.8294 79.1295 20.2321ZM94.4716 23.0001L89.9596 11.7201H91.3836L95.8956 23.0001H94.4716ZM89.6876 23.0001V11.7201H91.1436V23.0001H89.6876ZM94.8556 23.0001V11.7201H96.3116V23.0001H94.8556ZM101.56 23.0001V21.7361H105.992V23.0001H101.56ZM101.8 18.0241V16.7281H105.032V18.0241H101.8ZM100.744 11.7201H102.2V23.0001H100.744V11.7201ZM101.72 11.7201H105.832V12.9841H101.72V11.7201ZM54.2663 25.9841V24.7201H55.8983V25.9841H54.2663ZM54.2663 31.6641V30.4001H55.8983V31.6641H54.2663ZM57.5943 28.6721V27.7121H59.0503V28.6721H57.5943ZM59.0503 27.7121H57.5943C57.5943 27.1574 57.4397 26.7307 57.1303 26.4321C56.8317 26.1334 56.4157 25.9841 55.8823 25.9841V24.7201C56.5117 24.7201 57.061 24.8481 57.5303 25.1041C58.0103 25.3494 58.3837 25.7014 58.6503 26.1601C58.917 26.6081 59.0503 27.1254 59.0503 27.7121ZM59.0503 28.6561C59.0503 29.2534 58.917 29.7761 58.6503 30.2241C58.3837 30.6721 58.0103 31.0241 57.5303 31.2801C57.061 31.5361 56.5117 31.6641 55.8823 31.6641V30.4001C56.4157 30.4001 56.8317 30.2454 57.1303 29.9361C57.4397 29.6267 57.5943 29.2001 57.5943 28.6561H59.0503ZM53.3223 36.0001V24.7201H54.7783V36.0001H53.3223ZM61.3742 36.0001V24.7201H62.8302V36.0001H61.3742ZM65.4773 33.2641V27.4561H66.9333V33.2641H65.4773ZM65.4773 27.4561C65.4773 26.8694 65.6107 26.3521 65.8773 25.9041C66.144 25.4454 66.5173 25.0934 66.9973 24.8481C67.4773 24.5921 68.0267 24.4641 68.6453 24.4641V25.7281C68.112 25.7281 67.6907 25.8774 67.3813 26.1761C67.0827 26.4747 66.9333 26.9014 66.9333 27.4561H65.4773ZM65.4773 33.2481H66.9333C66.9333 33.8027 67.0827 34.2347 67.3813 34.5441C67.6907 34.8427 68.112 34.9921 68.6453 34.9921V36.2561C68.0267 36.2561 67.4773 36.1281 66.9973 35.8721C66.5173 35.6161 66.144 35.2641 65.8773 34.8161C65.6107 34.3681 65.4773 33.8454 65.4773 33.2481ZM70.5493 27.8721C70.4853 27.2001 70.2827 26.6774 69.9413 26.3041C69.6107 25.9201 69.1733 25.7281 68.6293 25.7281V24.4641C69.536 24.4641 70.272 24.7414 70.8373 25.2961C71.4133 25.8507 71.76 26.6187 71.8773 27.6001L70.5493 27.8721ZM70.5493 32.8481L71.8773 33.1041C71.76 34.0961 71.4133 34.8694 70.8373 35.4241C70.272 35.9787 69.536 36.2561 68.6293 36.2561V34.9921C69.1733 34.9921 69.6107 34.8054 69.9413 34.4321C70.2827 34.0481 70.4853 33.5201 70.5493 32.8481ZM73.1392 25.9841V24.7201H79.7792V25.9841H73.1392ZM75.7312 36.0001V24.7201H77.1872V36.0001H75.7312ZM86.3781 33.2641V24.7201H87.8341V33.2641H86.3781ZM81.5461 33.2641V24.7201H83.0021V33.2641H81.5461ZM87.8341 33.2481C87.8341 33.8347 87.7007 34.3574 87.4341 34.8161C87.1674 35.2641 86.7941 35.6161 86.3141 35.8721C85.8447 36.1174 85.3007 36.2401 84.6821 36.2401V34.9761C85.2154 34.9761 85.6314 34.8267 85.9301 34.5281C86.2287 34.2187 86.3781 33.7921 86.3781 33.2481H87.8341ZM81.5461 33.2481H83.0021C83.0021 33.7921 83.1514 34.2187 83.4501 34.5281C83.7594 34.8267 84.1807 34.9761 84.7141 34.9761V36.2401C84.0954 36.2401 83.5461 36.1174 83.0661 35.8721C82.5861 35.6161 82.2127 35.2641 81.9461 34.8161C81.6794 34.3574 81.5461 33.8347 81.5461 33.2481ZM94.7732 36.0001L92.7252 30.4961H94.2132L96.2612 36.0001H94.7732ZM91.4132 31.2161V29.9681H93.0452V31.2161H91.4132ZM91.4132 25.9841V24.7201H93.0452V25.9841H91.4132ZM94.7412 28.2401V27.6961H96.1972V28.2401H94.7412ZM96.1972 27.7121H94.7412C94.7412 27.1574 94.5865 26.7307 94.2772 26.4321C93.9785 26.1334 93.5625 25.9841 93.0292 25.9841V24.7201C93.6585 24.7201 94.2079 24.8481 94.6772 25.1041C95.1572 25.3494 95.5305 25.7014 95.7972 26.1601C96.0639 26.6081 96.1972 27.1254 96.1972 27.7121ZM96.1972 28.2241C96.1972 28.8107 96.0639 29.3334 95.7972 29.7921C95.5305 30.2401 95.1572 30.5921 94.6772 30.8481C94.2079 31.0934 93.6585 31.2161 93.0292 31.2161V29.9681C93.5625 29.9681 93.9785 29.8134 94.2772 29.5041C94.5865 29.1947 94.7412 28.7681 94.7412 28.2241H96.1972ZM90.4692 36.0001V24.7201H91.9252V36.0001H90.4692ZM99.3958 36.0001V34.7361H103.828V36.0001H99.3958ZM99.6358 31.0241V29.7281H102.868V31.0241H99.6358ZM98.5798 24.7201H100.036V36.0001H98.5798V24.7201ZM99.5558 24.7201H103.668V25.9841H99.5558V24.7201ZM110.704 33.4721C110.704 33.0774 110.592 32.7307 110.368 32.4321C110.144 32.1227 109.856 31.8347 109.504 31.5681C109.152 31.3014 108.773 31.0294 108.368 30.7521C107.973 30.4747 107.6 30.1707 107.248 29.8401C106.896 29.5094 106.608 29.1361 106.384 28.7201C106.16 28.2934 106.048 27.8027 106.048 27.2481H107.504C107.504 27.6321 107.616 27.9787 107.84 28.2881C108.064 28.5867 108.352 28.8747 108.704 29.1521C109.056 29.4187 109.429 29.6907 109.824 29.9681C110.229 30.2454 110.608 30.5494 110.96 30.8801C111.312 31.2001 111.6 31.5734 111.824 32.0001C112.048 32.4161 112.16 32.9067 112.16 33.4721H110.704ZM106.048 27.2801C106.048 26.6934 106.181 26.1921 106.448 25.7761C106.714 25.3601 107.088 25.0401 107.568 24.8161C108.048 24.5921 108.597 24.4801 109.216 24.4801V25.7281C108.682 25.7281 108.261 25.8667 107.952 26.1441C107.653 26.4214 107.504 26.8001 107.504 27.2801H106.048ZM112.16 33.4401C112.16 34.0161 112.026 34.5174 111.76 34.9441C111.493 35.3601 111.12 35.6801 110.64 35.9041C110.17 36.1281 109.621 36.2401 108.992 36.2401V34.9761C109.525 34.9761 109.941 34.8427 110.24 34.5761C110.549 34.2987 110.704 33.9201 110.704 33.4401H112.16ZM110.72 27.1361C110.666 26.6561 110.496 26.3041 110.208 26.0801C109.93 25.8454 109.6 25.7281 109.216 25.7281V24.4801C109.717 24.4801 110.17 24.5814 110.576 24.7841C110.981 24.9867 111.317 25.2641 111.584 25.6161C111.85 25.9681 112.016 26.3841 112.08 26.8641L110.72 27.1361ZM107.072 32.8321C107.136 33.5041 107.333 34.0321 107.664 34.4161C108.005 34.7894 108.448 34.9761 108.992 34.9761V36.2401C108.085 36.2401 107.344 35.9627 106.768 35.4081C106.202 34.8534 105.861 34.0854 105.744 33.1041L107.072 32.8321Z" fill="#FFFDFA"/>
</svg>
