<svg width="96" height="123" viewBox="0 0 96 123" fill="none" xmlns="http://www.w3.org/2000/svg">
<path d="M77.4555 53.4773C78.3692 54.3369 79.1047 55.368 79.6199 56.5118C80.1352 57.6556 80.4201 58.8897 80.4584 60.1437C80.4967 61.3976 80.2876 62.6468 79.8432 63.8199C79.3987 64.993 78.7275 66.0671 77.8679 66.9809C77.0084 67.8946 75.9772 68.6301 74.8334 69.1453C73.6896 69.6606 72.4555 69.9455 71.2016 69.9838C69.9477 70.0221 68.6985 69.813 67.5253 69.3686C66.3522 68.9241 65.2781 68.2529 64.3644 67.3933L64.6917 67.0454C65.5597 67.862 66.5801 68.4996 67.6946 68.9219C68.809 69.3441 69.9958 69.5427 71.187 69.5064C72.3782 69.47 73.5506 69.1993 74.6372 68.7098C75.7239 68.2204 76.7034 67.5216 77.52 66.6536C78.3366 65.7855 78.9742 64.7651 79.3965 63.6507C79.8187 62.5362 80.0173 61.3495 79.981 60.1582C79.9446 58.967 79.6739 57.7946 79.1844 56.708C78.695 55.6214 77.9962 54.6418 77.1282 53.8252L77.4555 53.4773Z" fill="url(#paint0_linear_354_1113)"/>
<path d="M75.8191 55.2168C76.5044 55.8615 77.056 56.6348 77.4424 57.4927C77.8289 58.3506 78.0425 59.2761 78.0713 60.2166C78.1 61.157 77.9432 62.0939 77.6098 62.9738C77.2765 63.8536 76.7731 64.6592 76.1284 65.3445C75.4837 66.0298 74.7104 66.5814 73.8525 66.9678C72.9947 67.3543 72.0691 67.5679 71.1287 67.5967C70.1882 67.6254 69.2513 67.4686 68.3715 67.1353C67.4916 66.8019 66.6861 66.2985 66.0008 65.6538L66.2462 65.3929C66.8973 66.0054 67.6626 66.4836 68.4984 66.8003C69.3343 67.1169 70.2243 67.2659 71.1177 67.2386C72.0111 67.2113 72.8904 67.0083 73.7054 66.6412C74.5204 66.2741 75.2551 65.7501 75.8675 65.099C76.4799 64.448 76.9582 63.6827 77.2749 62.8468C77.5915 62.011 77.7405 61.1209 77.7132 60.2275C77.6859 59.3341 77.4829 58.4548 77.1158 57.6398C76.7487 56.8249 76.2247 56.0902 75.5736 55.4777L75.8191 55.2168Z" fill="url(#paint1_linear_354_1113)"/>
<path d="M77.4555 53.4773C76.5417 52.6177 75.4676 51.9466 74.2945 51.5021C73.1214 51.0576 71.8722 50.8486 70.6183 50.8869C69.3643 50.9252 68.1302 51.2101 66.9864 51.7253C65.8426 52.2405 64.8115 52.976 63.9519 53.8898C63.0923 54.8035 62.4212 55.8776 61.9767 57.0507C61.5322 58.2239 61.3232 59.4731 61.3615 60.727C61.3998 61.9809 61.6847 63.215 62.1999 64.3588C62.7152 65.5026 63.4506 66.5337 64.3644 67.3933L64.6917 67.0454C63.8236 66.2288 63.1249 65.2493 62.6354 64.1626C62.1459 63.076 61.8753 61.9036 61.8389 60.7124C61.8025 59.5212 62.0011 58.3344 62.4234 57.22C62.8456 56.1055 63.4832 55.0851 64.2998 54.217C65.1164 53.349 66.096 52.6503 67.1826 52.1608C68.2692 51.6713 69.4416 51.4007 70.6328 51.3643C71.8241 51.3279 73.0108 51.5265 74.1253 51.9487C75.2397 52.371 76.2601 53.0086 77.1282 53.8252L77.4555 53.4773Z" fill="url(#paint2_linear_354_1113)"/>
<path d="M75.8191 55.2168C75.1338 54.5721 74.3282 54.0687 73.4484 53.7354C72.5685 53.402 71.6316 53.2453 70.6912 53.274C69.7507 53.3027 68.8252 53.5164 67.9673 53.9028C67.1095 54.2892 66.3361 54.8409 65.6914 55.5262C65.0467 56.2115 64.5434 57.017 64.21 57.8969C63.8767 58.7767 63.7199 59.7136 63.7486 60.6541C63.7773 61.5945 63.991 62.5201 64.3774 63.3779C64.7639 64.2358 65.3155 65.0091 66.0008 65.6538L66.2462 65.3929C65.5952 64.7805 65.0712 64.0458 64.7041 63.2308C64.3369 62.4158 64.134 61.5365 64.1067 60.6431C64.0794 59.7497 64.2283 58.8597 64.545 58.0238C64.8617 57.1879 65.3399 56.4227 65.9524 55.7716C66.5648 55.1206 67.2995 54.5965 68.1144 54.2294C68.9294 53.8623 69.8087 53.6593 70.7021 53.632C71.5955 53.6048 72.4856 53.7537 73.3214 54.0704C74.1573 54.3871 74.9226 54.8653 75.5736 55.4777L75.8191 55.2168Z" fill="url(#paint3_linear_354_1113)"/>
<circle cx="70.9099" cy="60.4353" r="1.91058" transform="rotate(-46.7496 70.9099 60.4353)" fill="#53808F"/>
<path d="M74.7491 56.3542L79.0919 51.7378L73.139 55.9745L74.7491 56.3542Z" fill="#53808F"/>
<path d="M62.4007 69.4807L68.3536 65.2441L66.7434 64.8644L62.4007 69.4807Z" fill="#53808F"/>
<path d="M33.9711 64.5867C33.4225 65.7149 32.657 66.724 31.7185 67.5564C30.7799 68.3888 29.6865 69.0281 28.5009 69.438C27.3152 69.8478 26.0604 70.0201 24.8081 69.945C23.5559 69.8699 22.3307 69.5489 21.2025 69.0003C20.0743 68.4517 19.0652 67.6863 18.2328 66.7477C17.4005 65.8091 16.7611 64.7158 16.3513 63.5301C15.9414 62.3444 15.7691 61.0896 15.8442 59.8374C15.9193 58.5851 16.2403 57.3599 16.7889 56.2317L17.2185 56.4406C16.6973 57.5124 16.3924 58.6763 16.321 59.866C16.2497 61.0556 16.4134 62.2476 16.8027 63.374C17.192 64.5004 17.7994 65.5391 18.5902 66.4307C19.3809 67.3224 20.3396 68.0496 21.4114 68.5707C22.4832 69.0919 23.6471 69.3969 24.8367 69.4682C26.0264 69.5396 27.2184 69.3759 28.3448 68.9865C29.4712 68.5972 30.5099 67.9898 31.4015 67.199C32.2932 66.4083 33.0204 65.4497 33.5415 64.3779L33.9711 64.5867Z" fill="url(#paint4_linear_354_1113)"/>
<path d="M31.8233 63.5424C31.4119 64.3885 30.8378 65.1453 30.1338 65.7696C29.4299 66.3939 28.6099 66.8734 27.7207 67.1808C26.8314 67.4882 25.8903 67.6174 24.9511 67.5611C24.0119 67.5047 23.093 67.264 22.2469 66.8525C21.4007 66.4411 20.6439 65.867 20.0196 65.1631C19.3953 64.4591 18.9158 63.6391 18.6085 62.7499C18.3011 61.8606 18.1719 60.9195 18.2282 59.9803C18.2845 59.0411 18.5253 58.1222 18.9367 57.2761L19.2589 57.4327C18.868 58.2366 18.6393 59.1095 18.5858 60.0018C18.5323 60.894 18.655 61.788 18.947 62.6328C19.239 63.4776 19.6946 64.2566 20.2877 64.9254C20.8807 65.5941 21.5997 66.1395 22.4035 66.5304C23.2074 66.9212 24.0803 67.15 24.9726 67.2035C25.8648 67.257 26.7588 67.1342 27.6036 66.8422C28.4484 66.5502 29.2274 66.0947 29.8962 65.5016C30.5649 64.9085 31.1103 64.1895 31.5011 63.3857L31.8233 63.5424Z" fill="url(#paint5_linear_354_1113)"/>
<path d="M33.9711 64.5867C34.5197 63.4585 34.8407 62.2333 34.9158 60.9811C34.9909 59.7288 34.8186 58.474 34.4088 57.2884C33.9989 56.1027 33.3596 55.0094 32.5272 54.0708C31.6948 53.1322 30.6857 52.3668 29.5575 51.8182C28.4293 51.2696 27.2041 50.9485 25.9519 50.8735C24.6996 50.7984 23.4448 50.9706 22.2592 51.3805C21.0735 51.7903 19.9802 52.4297 19.0416 53.262C18.103 54.0944 17.3375 55.1035 16.7889 56.2317L17.2185 56.4406C17.7397 55.3688 18.4668 54.4102 19.3585 53.6194C20.2501 52.8286 21.2888 52.2213 22.4152 51.8319C23.5416 51.4426 24.7336 51.2789 25.9233 51.3502C27.1129 51.4216 28.2769 51.7265 29.3487 52.2477C30.4204 52.7689 31.3791 53.4961 32.1698 54.3877C32.9606 55.2794 33.568 56.318 33.9573 57.4444C34.3467 58.5708 34.5103 59.7629 34.439 60.9525C34.3677 62.1421 34.0627 63.3061 33.5415 64.3779L33.9711 64.5867Z" fill="url(#paint6_linear_354_1113)"/>
<path d="M31.8233 63.5424C32.2348 62.6962 32.4755 61.7773 32.5318 60.8381C32.5882 59.8989 32.4589 58.9578 32.1516 58.0686C31.8442 57.1793 31.3647 56.3593 30.7404 55.6554C30.1161 54.9515 29.3593 54.3774 28.5131 53.9659C27.667 53.5545 26.7481 53.3137 25.8089 53.2574C24.8697 53.2011 23.9286 53.3303 23.0394 53.6377C22.1501 53.945 21.3301 54.4246 20.6262 55.0488C19.9222 55.6731 19.3482 56.4299 18.9367 57.2761L19.2589 57.4327C19.6498 56.6289 20.1951 55.9099 20.8639 55.3169C21.5326 54.7238 22.3116 54.2683 23.1564 53.9762C24.0012 53.6842 24.8952 53.5615 25.7875 53.615C26.6797 53.6685 27.5526 53.8972 28.3565 54.2881C29.1603 54.679 29.8793 55.2243 30.4724 55.8931C31.0654 56.5618 31.521 57.3408 31.813 58.1856C32.105 59.0304 32.2278 59.9244 32.1742 60.8167C32.1207 61.7089 31.892 62.5819 31.5011 63.3857L31.8233 63.5424Z" fill="url(#paint7_linear_354_1113)"/>
<circle cx="25.38" cy="60.4092" r="1.91058" transform="rotate(25.9319 25.38 60.4092)" fill="#53808F"/>
<path d="M30.419 62.8595L36.1189 65.6311L30.3022 61.2093L30.419 62.8595Z" fill="#53808F"/>
<path d="M14.2116 54.9785L20.0283 59.4002L19.9115 57.7501L14.2116 54.9785Z" fill="#53808F"/>
<path d="M28.9567 17.4227C28.9567 17.4227 41.6277 29.777 48.7552 29.777C55.8827 29.777 68.5537 17.4227 68.5537 17.4227C68.5537 17.4227 56.6746 30.6006 56.6746 38.0131C56.6746 45.4257 68.5537 58.6036 68.5537 58.6036C68.5537 58.6036 55.8827 46.2493 48.7552 46.2493C41.6277 46.2493 28.9567 58.6036 28.9567 58.6036C28.9567 58.6036 40.8358 45.4257 40.8358 38.0131C40.8358 30.6006 28.9567 17.4227 28.9567 17.4227Z" fill="#203A43"/>
<path d="M80.2883 17.2484C79.9239 18.4488 79.3266 19.5657 78.5305 20.5353C77.7345 21.5049 76.7553 22.3082 75.6488 22.8993C74.5423 23.4904 73.3302 23.8579 72.0817 23.9806C70.8332 24.1033 69.5728 23.9789 68.3724 23.6145C67.1719 23.25 66.0551 22.6528 65.0855 21.8567C64.1159 21.0607 63.3126 20.0814 62.7215 18.9749C62.1303 17.8684 61.7629 16.6563 61.6402 15.4078C61.5175 14.1594 61.6419 12.8989 62.0063 11.6985L62.4634 11.8373C62.1172 12.9777 61.999 14.1751 62.1156 15.3611C62.2321 16.5472 62.5812 17.6987 63.1428 18.7499C63.7043 19.801 64.4675 20.7313 65.3886 21.4875C66.3097 22.2438 67.3707 22.8112 68.5111 23.1574C69.6515 23.5036 70.8489 23.6218 72.035 23.5052C73.221 23.3886 74.3725 23.0396 75.4237 22.478C76.4749 21.9164 77.4051 21.1533 78.1614 20.2322C78.9176 19.3111 79.4851 18.2501 79.8312 17.1097L80.2883 17.2484Z" fill="url(#paint8_linear_354_1113)"/>
<path d="M78.003 16.5547C77.7297 17.455 77.2818 18.2926 76.6847 19.0198C76.0877 19.747 75.3533 20.3495 74.5234 20.7928C73.6935 21.2362 72.7844 21.5118 71.8481 21.6038C70.9117 21.6958 69.9664 21.6025 69.0661 21.3292C68.1658 21.0559 67.3281 20.6079 66.6009 20.0109C65.8737 19.4139 65.2713 18.6794 64.8279 17.8496C64.3845 17.0197 64.109 16.1106 64.017 15.1743C63.9249 14.2379 64.0182 13.2926 64.2915 12.3923L64.6343 12.4963C64.3747 13.3516 64.286 14.2497 64.3735 15.1392C64.4609 16.0288 64.7227 16.8924 65.1439 17.6808C65.5651 18.4691 66.1374 19.1668 66.8282 19.734C67.5191 20.3012 68.3148 20.7268 69.1701 20.9864C70.0254 21.2461 70.9235 21.3347 71.813 21.2473C72.7026 21.1598 73.5662 20.8981 74.3546 20.4769C75.143 20.0557 75.8407 19.4833 76.4078 18.7925C76.975 18.1017 77.4006 17.3059 77.6602 16.4506L78.003 16.5547Z" fill="url(#paint9_linear_354_1113)"/>
<path d="M80.2883 17.2484C80.6527 16.048 80.7771 14.7876 80.6544 13.5391C80.5317 12.2906 80.1643 11.0785 79.5731 9.97199C78.982 8.86549 78.1787 7.88627 77.2091 7.09022C76.2395 6.29417 75.1227 5.69688 73.9222 5.33247C72.7218 4.96806 71.4614 4.84366 70.2129 4.96636C68.9644 5.08907 67.7523 5.45648 66.6458 6.04762C65.5393 6.63876 64.5601 7.44206 63.764 8.41164C62.968 9.38122 62.3707 10.4981 62.0063 11.6985L62.4634 11.8373C62.8095 10.6969 63.377 9.63583 64.1332 8.71473C64.8895 7.79363 65.8197 7.0305 66.8709 6.46891C67.9221 5.90733 69.0736 5.55829 70.2596 5.44172C71.4457 5.32515 72.6431 5.44333 73.7835 5.78952C74.9239 6.13571 75.9849 6.70313 76.906 7.45938C77.8271 8.21563 78.5903 9.14589 79.1518 10.1971C79.7134 11.2482 80.0625 12.3997 80.179 13.5858C80.2956 14.7719 80.1774 15.9693 79.8312 17.1097L80.2883 17.2484Z" fill="url(#paint10_linear_354_1113)"/>
<path d="M78.003 16.5547C78.2763 15.6544 78.3696 14.709 78.2776 13.7727C78.1856 12.8363 77.91 11.9272 77.4667 11.0974C77.0233 10.2675 76.4208 9.53307 75.6936 8.93603C74.9665 8.33899 74.1288 7.89103 73.2285 7.61772C72.3282 7.34442 71.3829 7.25111 70.4465 7.34314C69.5101 7.43517 68.6011 7.71073 67.7712 8.15409C66.9413 8.59744 66.2069 9.19991 65.6098 9.9271C65.0128 10.6543 64.5648 11.4919 64.2915 12.3923L64.6343 12.4963C64.894 11.641 65.3195 10.8452 65.8867 10.1544C66.4539 9.46359 67.1516 8.89124 67.94 8.47006C68.7284 8.04887 69.592 7.78709 70.4815 7.69966C71.3711 7.61223 72.2691 7.70087 73.1244 7.96051C73.9797 8.22016 74.7755 8.64572 75.4663 9.2129C76.1572 9.78009 76.7295 10.4778 77.1507 11.2662C77.5719 12.0545 77.8337 12.9182 77.9211 13.8077C78.0085 14.6973 77.9199 15.5953 77.6602 16.4506L78.003 16.5547Z" fill="url(#paint11_linear_354_1113)"/>
<circle cx="71.1473" cy="14.4735" r="1.91058" transform="rotate(16.8868 71.1473 14.4735)" fill="#53808F"/>
<path d="M76.5088 16.1011L82.5735 17.9422L76.134 14.4898L76.5088 16.1011Z" fill="#53808F"/>
<path d="M59.264 10.866L65.7035 14.3184L65.3287 12.7071L59.264 10.866Z" fill="#53808F"/>
<path d="M33.5251 9.26889C34.2224 10.3118 34.7074 11.4818 34.9524 12.7121C35.1975 13.9425 35.1978 15.209 34.9534 16.4395C34.709 17.67 34.2246 18.8402 33.528 19.8835C32.8313 20.9268 31.9359 21.8226 30.893 22.5199C29.8501 23.2171 28.6801 23.7021 27.4498 23.9472C26.2194 24.1923 24.9529 24.1926 23.7224 23.9482C22.492 23.7038 21.3217 23.2194 20.2784 22.5227C19.2351 21.826 18.3393 20.9307 17.6421 19.8878L18.0391 19.6223C18.7015 20.6131 19.5526 21.4636 20.5437 22.1255C21.5348 22.7873 22.6465 23.2475 23.8155 23.4797C24.9844 23.7119 26.1876 23.7116 27.3565 23.4787C28.5253 23.2459 29.6368 22.7852 30.6276 22.1228C31.6183 21.4604 32.4689 20.6094 33.1307 19.6182C33.7926 18.6271 34.2527 17.5154 34.4849 16.3464C34.7171 15.1775 34.7168 13.9743 34.484 12.8054C34.2512 11.6366 33.7904 10.5251 33.128 9.53436L33.5251 9.26889Z" fill="url(#paint12_linear_354_1113)"/>
<path d="M31.5397 10.5963C32.0627 11.3784 32.4264 12.2559 32.6102 13.1787C32.794 14.1014 32.7943 15.0514 32.611 15.9742C32.4277 16.8971 32.0644 17.7748 31.5419 18.5572C31.0194 19.3397 30.3478 20.0115 29.5657 20.5345C28.7835 21.0574 27.906 21.4212 26.9832 21.605C26.0605 21.7888 25.1106 21.789 24.1877 21.6057C23.2649 21.4224 22.3872 21.0591 21.6047 20.5366C20.8222 20.0141 20.1504 19.3426 19.6274 18.5604L19.9252 18.3613C20.422 19.1044 21.0603 19.7423 21.8036 20.2387C22.547 20.7351 23.3808 21.0802 24.2575 21.2544C25.1342 21.4285 26.0366 21.4283 26.9132 21.2536C27.7899 21.079 28.6235 20.7335 29.3666 20.2367C30.1096 19.7399 30.7476 19.1016 31.244 18.3583C31.7403 17.6149 32.0855 16.7811 32.2596 15.9044C32.4337 15.0277 32.4335 14.1253 32.2589 13.2487C32.0843 12.3721 31.7387 11.5384 31.2419 10.7954L31.5397 10.5963Z" fill="url(#paint13_linear_354_1113)"/>
<path d="M33.5251 9.26889C32.8278 8.22599 31.932 7.33064 30.8887 6.63395C29.8455 5.93727 28.6752 5.45289 27.4447 5.20848C26.2143 4.96407 24.9477 4.96441 23.7174 5.20948C22.487 5.45455 21.317 5.93956 20.2741 6.6368C19.2312 7.33405 18.3359 8.22988 17.6392 9.27315C16.9425 10.3164 16.4581 11.4867 16.2137 12.7172C15.9693 13.9476 15.9696 15.2142 16.2147 16.4445C16.4598 17.6749 16.9448 18.8449 17.642 19.8878L18.0391 19.6223C17.3767 18.6316 16.916 17.52 16.6832 16.3512C16.4503 15.1824 16.45 13.9792 16.6822 12.8102C16.9144 11.6413 17.3745 10.5295 18.0364 9.53841C18.6983 8.54731 19.5488 7.69627 20.5396 7.03388C21.5303 6.3715 22.6419 5.91074 23.8107 5.67792C24.9795 5.44511 26.1827 5.44478 27.3517 5.67697C28.5206 5.90916 29.6324 6.36932 30.6235 7.03117C31.6146 7.69302 32.4656 8.54361 33.128 9.53436L33.5251 9.26889Z" fill="url(#paint14_linear_354_1113)"/>
<path d="M31.5397 10.5962C31.0168 9.81407 30.3449 9.14256 29.5625 8.62005C28.78 8.09753 27.9023 7.73425 26.9794 7.55094C26.0566 7.36763 25.1067 7.36789 24.1839 7.55169C23.2612 7.7355 22.3837 8.09925 21.6015 8.62218C20.8193 9.14512 20.1478 9.81699 19.6253 10.5994C19.1028 11.3819 18.7395 12.2596 18.5562 13.1825C18.3729 14.1053 18.3731 15.0552 18.5569 15.978C18.7407 16.9007 19.1045 17.7782 19.6274 18.5604L19.9252 18.3613C19.4284 17.6182 19.0829 16.7846 18.9083 15.908C18.7337 15.0314 18.7334 14.129 18.9076 13.2522C19.0817 12.3755 19.4268 11.5417 19.9232 10.7984C20.4196 10.0551 21.0575 9.41678 21.8006 8.91999C22.5437 8.4232 23.3773 8.07764 24.2539 7.90302C25.1305 7.72841 26.0329 7.72817 26.9097 7.90231C27.7864 8.07645 28.6202 8.42157 29.3635 8.91796C30.1068 9.41435 30.7451 10.0523 31.2419 10.7953L31.5397 10.5962Z" fill="url(#paint15_linear_354_1113)"/>
<circle cx="25.5836" cy="14.5783" r="1.91058" transform="rotate(-33.7654 25.5836 14.5783)" fill="#53808F"/>
<path d="M30.2416 11.4641L35.5105 7.94153L28.7579 10.7324L30.2416 11.4641Z" fill="#53808F"/>
<path d="M15.2596 21.4806L22.0121 18.6898L20.5285 17.958L15.2596 21.4806Z" fill="#53808F"/>
<path d="M18.1957 96.6228V88.2346H20.5019V96.6228H18.1957ZM13.0006 101.362V99.3598H15.5095V101.362H13.0006ZM13.0006 85.4977V83.4956H15.5095V85.4977H13.0006ZM13.0006 85.4977V83.4956H15.5095V85.4977H13.0006ZM20.5019 88.2346H18.1957C18.1957 87.3561 17.9592 86.6803 17.4862 86.2072C17.0131 85.7342 16.3542 85.4977 15.5095 85.4977V83.4956C16.4894 83.4956 17.351 83.6984 18.0944 84.1038C18.8546 84.4924 19.4459 85.0499 19.8683 85.7764C20.2907 86.486 20.5019 87.3054 20.5019 88.2346ZM20.5019 96.5975C20.5019 97.5436 20.2907 98.3714 19.8683 99.081C19.4459 99.7906 18.8546 100.348 18.0944 100.754C17.351 101.159 16.4894 101.362 15.5095 101.362V99.3598C16.3542 99.3598 17.0131 99.1233 17.4862 98.6502C17.9592 98.1603 18.1957 97.476 18.1957 96.5975H20.5019ZM11.3787 101.362V83.4956H13.6848V101.362H11.3787ZM3.20777 105.498V103.496H5.79266V105.498H3.20777ZM3.20777 114.494V112.492H5.79266V114.494H3.20777ZM8.47892 109.755V108.235H10.7851V109.755H8.47892ZM10.7851 108.235H8.47892C8.47892 107.356 8.23395 106.68 7.744 106.207C7.27095 105.734 6.61205 105.498 5.76732 105.498V103.496C6.76411 103.496 7.63418 103.698 8.37755 104.104C9.13782 104.492 9.72913 105.05 10.1515 105.776C10.5739 106.486 10.7851 107.305 10.7851 108.235ZM10.7851 109.73C10.7851 110.676 10.5739 111.504 10.1515 112.213C9.72913 112.923 9.13782 113.48 8.37755 113.886C7.63418 114.291 6.76411 114.494 5.76732 114.494V112.492C6.61205 112.492 7.27095 112.247 7.744 111.757C8.23395 111.267 8.47892 110.591 8.47892 109.73H10.7851ZM1.71258 121.362V103.496H4.01871V121.362H1.71258Z" fill="#EC4F0B"/>
<path d="M34.0246 101.362L30.7808 92.6441H33.1377L36.3814 101.362H34.0246ZM28.7028 93.7845V91.8078H31.2877V93.7845H28.7028ZM28.7028 85.4977V83.4956H31.2877V85.4977H28.7028ZM33.974 89.0709V88.2093H36.2801V89.0709H33.974ZM36.2801 88.2346H33.974C33.974 87.3561 33.729 86.6803 33.239 86.2072C32.766 85.7342 32.1071 85.4977 31.2623 85.4977V83.4956C32.2591 83.4956 33.1292 83.6984 33.8726 84.1038C34.6328 84.4924 35.2242 85.0499 35.6465 85.7764C36.0689 86.486 36.2801 87.3054 36.2801 88.2346ZM36.2801 89.0455C36.2801 89.9748 36.0689 90.8026 35.6465 91.5291C35.2242 92.2387 34.6328 92.7962 33.8726 93.2016C33.1292 93.5902 32.2591 93.7845 31.2623 93.7845V91.8078C32.1071 91.8078 32.766 91.5629 33.239 91.0729C33.729 90.583 33.974 89.9072 33.974 89.0455H36.2801ZM27.2076 101.362V83.4956H29.5137V101.362H27.2076ZM50.2921 97.003V87.8291H52.5982V97.003H50.2921ZM42.5881 97.003V87.8291H44.8942V97.003H42.5881ZM52.5982 87.8545H50.2921C50.2921 86.9759 50.0471 86.3002 49.5572 85.8271C49.0841 85.3541 48.4252 85.1175 47.5805 85.1175V83.1155C48.5773 83.1155 49.4473 83.3182 50.1907 83.7237C50.951 84.1123 51.5423 84.6698 51.9647 85.3963C52.387 86.1059 52.5982 86.9253 52.5982 87.8545ZM42.5881 87.8545C42.5881 86.9253 42.7993 86.1059 43.2216 85.3963C43.644 84.6698 44.2353 84.1123 44.9956 83.7237C45.7558 83.3182 46.6259 83.1155 47.6058 83.1155V85.1175C46.7611 85.1175 46.0937 85.3541 45.6038 85.8271C45.1307 86.3002 44.8942 86.9759 44.8942 87.8545H42.5881ZM52.5982 96.9776C52.5982 97.9237 52.387 98.7516 51.9647 99.4611C51.5423 100.171 50.951 100.728 50.1907 101.134C49.4473 101.539 48.5773 101.742 47.5805 101.742V99.7399C48.4252 99.7399 49.0841 99.5034 49.5572 99.0303C50.0471 98.5404 50.2921 97.8561 50.2921 96.9776H52.5982ZM42.5881 96.9776H44.8942C44.8942 97.8561 45.1307 98.5404 45.6038 99.0303C46.0937 99.5034 46.7611 99.7399 47.6058 99.7399V101.742C46.6259 101.742 45.7558 101.539 44.9956 101.134C44.2353 100.728 43.644 100.171 43.2216 99.4611C42.7993 98.7516 42.5881 97.9237 42.5881 96.9776ZM66.8882 101.362L59.7417 83.4956H61.9971L69.1436 101.362H66.8882ZM59.3109 101.362V83.4956H61.617V101.362H59.3109ZM67.4964 101.362V83.4956H69.8025V101.362H67.4964ZM78.1151 101.362V99.3598H85.1349V101.362H78.1151ZM78.4952 93.4804V91.4277H83.6143V93.4804H78.4952ZM76.8227 83.4956H79.1288V101.362H76.8227V83.4956ZM78.3685 83.4956H84.8814V85.4977H78.3685V83.4956ZM14.4658 121.362V103.496H16.7719V121.362H14.4658ZM20.9646 117.028V107.829H23.2708V117.028H20.9646ZM20.9646 107.829C20.9646 106.9 21.1758 106.081 21.5982 105.371C22.0206 104.644 22.6119 104.087 23.3721 103.698C24.1324 103.293 25.0025 103.09 25.9824 103.09V105.092C25.1376 105.092 24.4703 105.329 23.9804 105.802C23.5073 106.275 23.2708 106.951 23.2708 107.829H20.9646ZM20.9646 117.003H23.2708C23.2708 117.881 23.5073 118.566 23.9804 119.056C24.4703 119.529 25.1376 119.765 25.9824 119.765V121.767C25.0025 121.767 24.1324 121.565 23.3721 121.159C22.6119 120.754 22.0206 120.196 21.5982 119.486C21.1758 118.777 20.9646 117.949 20.9646 117.003ZM28.9981 108.488C28.8967 107.424 28.5757 106.596 28.0351 106.004C27.5114 105.396 26.8187 105.092 25.957 105.092V103.09C27.3931 103.09 28.5588 103.529 29.4542 104.408C30.3666 105.286 30.9156 106.503 31.1015 108.057L28.9981 108.488ZM28.9981 116.369L31.1015 116.775C30.9156 118.346 30.3666 119.571 29.4542 120.449C28.5588 121.328 27.3931 121.767 25.957 121.767V119.765C26.8187 119.765 27.5114 119.47 28.0351 118.878C28.5757 118.27 28.8967 117.434 28.9981 116.369ZM33.1001 105.498V103.496H43.6171V105.498H33.1001ZM37.2056 121.362V103.496H39.5117V121.362H37.2056ZM54.0689 117.028V103.496H56.3751V117.028H54.0689ZM46.4156 117.028V103.496H48.7218V117.028H46.4156ZM56.3751 117.003C56.3751 117.932 56.1639 118.76 55.7415 119.486C55.3191 120.196 54.7278 120.754 53.9676 121.159C53.2242 121.548 52.3626 121.742 51.3827 121.742V119.74C52.2274 119.74 52.8863 119.503 53.3594 119.03C53.8324 118.54 54.0689 117.865 54.0689 117.003H56.3751ZM46.4156 117.003H48.7218C48.7218 117.865 48.9583 118.54 49.4313 119.03C49.9213 119.503 50.5886 119.74 51.4334 119.74V121.742C50.4535 121.742 49.5834 121.548 48.8231 121.159C48.0629 120.754 47.4715 120.196 47.0492 119.486C46.6268 118.76 46.4156 117.932 46.4156 117.003ZM67.3658 121.362L64.122 112.644H66.4788L69.7226 121.362H67.3658ZM62.044 113.785V111.808H64.6289V113.785H62.044ZM62.044 105.498V103.496H64.6289V105.498H62.044ZM67.3151 109.071V108.209H69.6213V109.071H67.3151ZM69.6213 108.235H67.3151C67.3151 107.356 67.0702 106.68 66.5802 106.207C66.1072 105.734 65.4483 105.498 64.6035 105.498V103.496C65.6003 103.496 66.4704 103.698 67.2138 104.104C67.974 104.492 68.5653 105.05 68.9877 105.776C69.4101 106.486 69.6213 107.305 69.6213 108.235ZM69.6213 109.046C69.6213 109.975 69.4101 110.803 68.9877 111.529C68.5653 112.239 67.974 112.796 67.2138 113.202C66.4704 113.59 65.6003 113.785 64.6035 113.785V111.808C65.4483 111.808 66.1072 111.563 66.5802 111.073C67.0702 110.583 67.3151 109.907 67.3151 109.046H69.6213ZM60.5488 121.362V103.496H62.8549V121.362H60.5488ZM74.6875 121.362V119.36H81.7073V121.362H74.6875ZM75.0676 113.48V111.428H80.1867V113.48H75.0676ZM73.3951 103.496H75.7012V121.362H73.3951V103.496ZM74.9409 103.496H81.4538V105.498H74.9409V103.496ZM92.5976 117.358C92.5976 116.733 92.4202 116.184 92.0654 115.711C91.7106 115.221 91.2545 114.764 90.697 114.342C90.1394 113.92 89.5397 113.489 88.8977 113.05C88.2726 112.61 87.6813 112.129 87.1237 111.605C86.5662 111.081 86.11 110.49 85.7553 109.831C85.4005 109.155 85.2231 108.378 85.2231 107.5H87.5292C87.5292 108.108 87.7066 108.657 88.0614 109.147C88.4162 109.62 88.8723 110.076 89.4299 110.515C89.9874 110.938 90.5787 111.369 91.2038 111.808C91.8458 112.247 92.4456 112.729 93.0031 113.252C93.5606 113.759 94.0168 114.35 94.3716 115.026C94.7264 115.685 94.9037 116.462 94.9037 117.358H92.5976ZM85.2231 107.55C85.2231 106.621 85.4343 105.827 85.8566 105.168C86.279 104.509 86.8703 104.002 87.6306 103.648C88.3908 103.293 89.2609 103.115 90.2408 103.115V105.092C89.3961 105.092 88.7287 105.312 88.2388 105.751C87.7657 106.19 87.5292 106.79 87.5292 107.55H85.2231ZM94.9037 117.307C94.9037 118.219 94.6926 119.013 94.2702 119.689C93.8478 120.348 93.2565 120.855 92.4963 121.21C91.7529 121.565 90.8828 121.742 89.886 121.742V119.74C90.7308 119.74 91.3896 119.529 91.8627 119.106C92.3526 118.667 92.5976 118.067 92.5976 117.307H94.9037ZM92.623 107.322C92.5385 106.562 92.2682 106.004 91.812 105.65C91.3728 105.278 90.849 105.092 90.2408 105.092V103.115C91.0349 103.115 91.7529 103.276 92.3949 103.597C93.0369 103.918 93.5691 104.357 93.9914 104.915C94.4138 105.472 94.6757 106.131 94.777 106.891L92.623 107.322ZM86.845 116.344C86.9463 117.408 87.2589 118.245 87.7826 118.853C88.3233 119.444 89.0244 119.74 89.886 119.74V121.742C88.45 121.742 87.2758 121.303 86.3635 120.424C85.468 119.546 84.9274 118.329 84.7416 116.775L86.845 116.344Z" fill="#203A43"/>
<defs>
<linearGradient id="paint0_linear_354_1113" x1="84.4135" y1="60.0229" x2="71.3224" y2="73.9389" gradientUnits="userSpaceOnUse">
<stop offset="0.674044" stop-color="#EC4F0B"/>
<stop offset="1" stop-color="#D9D9D9" stop-opacity="0"/>
</linearGradient>
<linearGradient id="paint1_linear_354_1113" x1="81.0376" y1="60.126" x2="71.2193" y2="70.563" gradientUnits="userSpaceOnUse">
<stop offset="0.674044" stop-color="#EC4F0B"/>
<stop offset="1" stop-color="#D9D9D9" stop-opacity="0"/>
</linearGradient>
<linearGradient id="paint2_linear_354_1113" x1="57.4064" y1="60.8478" x2="70.4975" y2="46.9318" gradientUnits="userSpaceOnUse">
<stop offset="0.706033" stop-color="#203A43"/>
<stop offset="1" stop-color="#D9D9D9" stop-opacity="0"/>
</linearGradient>
<linearGradient id="paint3_linear_354_1113" x1="60.7823" y1="60.7447" x2="70.6006" y2="50.3077" gradientUnits="userSpaceOnUse">
<stop offset="0.706033" stop-color="#203A43"/>
<stop offset="1" stop-color="#D9D9D9" stop-opacity="0"/>
</linearGradient>
<linearGradient id="paint4_linear_354_1113" x1="29.7936" y1="73.1778" x2="12.6114" y2="64.8228" gradientUnits="userSpaceOnUse">
<stop offset="0.674044" stop-color="#EC4F0B"/>
<stop offset="1" stop-color="#D9D9D9" stop-opacity="0"/>
</linearGradient>
<linearGradient id="paint5_linear_354_1113" x1="28.6902" y1="69.9857" x2="15.8036" y2="63.7194" gradientUnits="userSpaceOnUse">
<stop offset="0.674044" stop-color="#EC4F0B"/>
<stop offset="1" stop-color="#D9D9D9" stop-opacity="0"/>
</linearGradient>
<linearGradient id="paint6_linear_354_1113" x1="20.9665" y1="47.6406" x2="38.1486" y2="55.9957" gradientUnits="userSpaceOnUse">
<stop offset="0.650922" stop-color="#203A43"/>
<stop offset="1" stop-color="#E0E0E0" stop-opacity="0"/>
</linearGradient>
<linearGradient id="paint7_linear_354_1113" x1="22.0698" y1="50.8328" x2="34.9564" y2="57.0991" gradientUnits="userSpaceOnUse">
<stop offset="0.650922" stop-color="#203A43"/>
<stop offset="1" stop-color="#E0E0E0" stop-opacity="0"/>
</linearGradient>
<linearGradient id="paint8_linear_354_1113" x1="77.5133" y1="26.3894" x2="59.2314" y2="20.8395" gradientUnits="userSpaceOnUse">
<stop offset="0.674044" stop-color="#203A43"/>
<stop offset="1" stop-color="#E0E0E0" stop-opacity="0"/>
</linearGradient>
<linearGradient id="paint9_linear_354_1113" x1="75.9218" y1="23.4104" x2="62.2103" y2="19.248" gradientUnits="userSpaceOnUse">
<stop offset="0.674044" stop-color="#203A43"/>
<stop offset="1" stop-color="#E0E0E0" stop-opacity="0"/>
</linearGradient>
<linearGradient id="paint10_linear_354_1113" x1="64.7813" y1="2.55752" x2="83.0632" y2="8.10742" gradientUnits="userSpaceOnUse">
<stop offset="0.706033" stop-color="#EC4F0B"/>
<stop offset="1" stop-color="#E0E0E0" stop-opacity="0"/>
</linearGradient>
<linearGradient id="paint11_linear_354_1113" x1="66.3728" y1="5.53651" x2="80.0842" y2="9.69894" gradientUnits="userSpaceOnUse">
<stop offset="0.706033" stop-color="#EC4F0B"/>
<stop offset="1" stop-color="#E0E0E0" stop-opacity="0"/>
</linearGradient>
<linearGradient id="paint12_linear_354_1113" x1="38.8345" y1="17.2104" x2="22.9515" y2="27.8293" gradientUnits="userSpaceOnUse">
<stop offset="0.674044" stop-color="#203A43"/>
<stop offset="1" stop-color="#E0E0E0" stop-opacity="0"/>
</linearGradient>
<linearGradient id="paint13_linear_354_1113" x1="35.5218" y1="16.5524" x2="23.6095" y2="24.5166" gradientUnits="userSpaceOnUse">
<stop offset="0.674044" stop-color="#203A43"/>
<stop offset="1" stop-color="#E0E0E0" stop-opacity="0"/>
</linearGradient>
<linearGradient id="paint14_linear_354_1113" x1="12.3326" y1="11.9462" x2="28.2156" y2="1.32736" gradientUnits="userSpaceOnUse">
<stop offset="0.706033" stop-color="#EC4F0B"/>
<stop offset="1" stop-color="#E0E0E0" stop-opacity="0"/>
</linearGradient>
<linearGradient id="paint15_linear_354_1113" x1="15.6453" y1="12.6043" x2="27.5576" y2="4.6401" gradientUnits="userSpaceOnUse">
<stop offset="0.706033" stop-color="#EC4F0B"/>
<stop offset="1" stop-color="#E0E0E0" stop-opacity="0"/>
</linearGradient>
</defs>
</svg>
