<svg width="62" height="78" viewBox="0 0 62 78" fill="none" xmlns="http://www.w3.org/2000/svg">
<path d="M49.1202 33.7635C49.6971 34.3062 50.1615 34.9572 50.4868 35.6794C50.8121 36.4015 50.992 37.1807 51.0161 37.9724C51.0403 38.7641 50.9083 39.5527 50.6277 40.2934C50.3471 41.0341 49.9233 41.7122 49.3806 42.2891C48.8379 42.866 48.1869 43.3304 47.4648 43.6557C46.7426 43.981 45.9634 44.1609 45.1718 44.185C44.3801 44.2092 43.5914 44.0772 42.8507 43.7966C42.1101 43.516 41.4319 43.0922 40.855 42.5495L41.0616 42.3299C41.6097 42.8454 42.2539 43.248 42.9576 43.5146C43.6612 43.7812 44.4105 43.9066 45.1626 43.8836C45.9146 43.8606 46.6548 43.6898 47.3409 43.3807C48.027 43.0717 48.6454 42.6305 49.161 42.0825C49.6765 41.5344 50.0791 40.8902 50.3457 40.1866C50.6123 39.4829 50.7377 38.7337 50.7147 37.9816C50.6917 37.2295 50.5209 36.4893 50.2118 35.8032C49.9028 35.1172 49.4616 34.4987 48.9136 33.9832L49.1202 33.7635Z" fill="#FFFDFA"/>
<path d="M48.0871 34.8618C48.5197 35.2688 48.868 35.7571 49.112 36.2987C49.356 36.8403 49.4909 37.4247 49.509 38.0184C49.5272 38.6122 49.4282 39.2037 49.2177 39.7592C49.0072 40.3147 48.6894 40.8233 48.2824 41.256C47.8754 41.6887 47.3871 42.0369 46.8455 42.2809C46.3039 42.5249 45.7195 42.6598 45.1257 42.6779C44.532 42.6961 43.9405 42.5971 43.385 42.3866C42.8295 42.1761 42.3208 41.8583 41.8882 41.4513L42.0431 41.2865C42.4542 41.6732 42.9374 41.9752 43.4651 42.1751C43.9928 42.375 44.5548 42.4691 45.1188 42.4518C45.6829 42.4346 46.238 42.3065 46.7526 42.0747C47.2671 41.8429 47.731 41.512 48.1176 41.101C48.5043 40.69 48.8062 40.2068 49.0062 39.6791C49.2061 39.1513 49.3002 38.5894 49.2829 38.0253C49.2657 37.4613 49.1376 36.9061 48.9058 36.3916C48.674 35.877 48.3431 35.4132 47.9321 35.0265L48.0871 34.8618Z" fill="#FFFDFA"/>
<path d="M49.1202 33.7635C48.5433 33.2208 47.8652 32.797 47.1245 32.5164C46.3838 32.2358 45.5952 32.1038 44.8035 32.128C44.0118 32.1522 43.2326 32.3321 42.5105 32.6574C41.7883 32.9827 41.1373 33.447 40.5946 34.0239C40.0519 34.6008 39.6282 35.279 39.3475 36.0196C39.0669 36.7603 38.9349 37.549 38.9591 38.3407C38.9833 39.1323 39.1632 39.9115 39.4885 40.6337C39.8138 41.3558 40.2781 42.0068 40.855 42.5495L41.0617 42.3299C40.5136 41.8143 40.0725 41.1958 39.7634 40.5098C39.4544 39.8237 39.2835 39.0835 39.2605 38.3314C39.2376 37.5794 39.3629 36.8301 39.6295 36.1265C39.8961 35.4228 40.2987 34.7786 40.8143 34.2305C41.3298 33.6825 41.9483 33.2414 42.6343 32.9323C43.3204 32.6233 44.0606 32.4524 44.8127 32.4294C45.5648 32.4064 46.314 32.5318 47.0177 32.7984C47.7213 33.065 48.3655 33.4676 48.9136 33.9832L49.1202 33.7635Z" fill="#FFFDFA"/>
<path d="M48.0871 34.8617C47.6544 34.4547 47.1458 34.1369 46.5903 33.9264C46.0348 33.716 45.4433 33.617 44.8495 33.6351C44.2558 33.6533 43.6714 33.7882 43.1298 34.0321C42.5882 34.2761 42.0999 34.6244 41.6929 35.0571C41.2858 35.4897 40.968 35.9983 40.7576 36.5538C40.5471 37.1093 40.4481 37.7009 40.4662 38.2946C40.4844 38.8884 40.6193 39.4727 40.8633 40.0144C41.1072 40.556 41.4555 41.0442 41.8882 41.4513L42.0431 41.2865C41.6321 40.8999 41.3013 40.436 41.0695 39.9215C40.8377 39.4069 40.7095 38.8518 40.6923 38.2877C40.6751 37.7236 40.7691 37.1617 40.9691 36.634C41.169 36.1062 41.4709 35.6231 41.8576 35.212C42.2443 34.801 42.7081 34.4701 43.2227 34.2384C43.7372 34.0066 44.2924 33.8784 44.8564 33.8612C45.4205 33.844 45.9824 33.938 46.5102 34.1379C47.0379 34.3379 47.5211 34.6398 47.9321 35.0265L48.0871 34.8617Z" fill="#FFFDFA"/>
<circle cx="44.9876" cy="38.1565" r="1.20627" transform="rotate(-46.7496 44.9876 38.1565)" fill="#FFFDFA"/>
<path d="M47.4116 35.5799L50.1534 32.6653L46.395 35.3401L47.4116 35.5799Z" fill="#FFFDFA"/>
<path d="M39.6152 43.8674L43.3736 41.1926L42.3571 40.9528L39.6152 43.8674Z" fill="#FFFDFA"/>
<path d="M21.6659 40.7776C21.3195 41.4899 20.8363 42.127 20.2437 42.6525C19.6511 43.178 18.9608 43.5817 18.2122 43.8405C17.4636 44.0992 16.6714 44.208 15.8808 44.1606C15.0901 44.1132 14.3166 43.9105 13.6043 43.5641C12.892 43.2178 12.2549 42.7345 11.7294 42.1419C11.2038 41.5493 10.8002 40.859 10.5414 40.1104C10.2827 39.3619 10.1739 38.5696 10.2213 37.779C10.2687 36.9884 10.4714 36.2148 10.8178 35.5025L11.089 35.6344C10.7599 36.3111 10.5674 37.046 10.5223 37.7971C10.4773 38.5482 10.5806 39.3008 10.8264 40.0119C11.0723 40.7231 11.4557 41.3789 11.955 41.9418C12.4543 42.5048 13.0595 42.9639 13.7362 43.2929C14.4129 43.622 15.1477 43.8145 15.8988 43.8595C16.6499 43.9046 17.4025 43.8013 18.1137 43.5554C18.8248 43.3096 19.4806 42.9261 20.0436 42.4269C20.6065 41.9276 21.0656 41.3224 21.3947 40.6457L21.6659 40.7776Z" fill="#FFFDFA"/>
<path d="M20.3099 40.1182C20.0501 40.6524 19.6876 41.1302 19.2432 41.5244C18.7988 41.9185 18.281 42.2213 17.7196 42.4154C17.1582 42.6094 16.564 42.691 15.971 42.6554C15.3781 42.6199 14.7979 42.4679 14.2637 42.2081C13.7295 41.9483 13.2516 41.5859 12.8575 41.1414C12.4633 40.697 12.1606 40.1793 11.9665 39.6178C11.7725 39.0564 11.6909 38.4622 11.7264 37.8693C11.762 37.2763 11.914 36.6961 12.1738 36.1619L12.3772 36.2608C12.1304 36.7683 11.986 37.3195 11.9522 37.8828C11.9184 38.4461 11.9959 39.0106 12.1803 39.544C12.3647 40.0773 12.6523 40.5692 13.0267 40.9914C13.4011 41.4136 13.8551 41.7579 14.3626 42.0047C14.8701 42.2515 15.4213 42.3959 15.9846 42.4297C16.5479 42.4635 17.1124 42.386 17.6457 42.2016C18.1791 42.0172 18.6709 41.7296 19.0931 41.3552C19.5154 40.9807 19.8597 40.5268 20.1065 40.0193L20.3099 40.1182Z" fill="#FFFDFA"/>
<path d="M21.6659 40.7776C22.0123 40.0653 22.2149 39.2917 22.2623 38.5011C22.3098 37.7105 22.201 36.9183 21.9422 36.1697C21.6835 35.4211 21.2798 34.7308 20.7543 34.1382C20.2287 33.5456 19.5916 33.0624 18.8793 32.716C18.167 32.3696 17.3935 32.167 16.6029 32.1195C15.8123 32.0721 15.02 32.1809 14.2714 32.4397C13.5229 32.6984 12.8326 33.1021 12.24 33.6276C11.6474 34.1531 11.1641 34.7902 10.8178 35.5025L11.089 35.6344C11.418 34.9577 11.8771 34.3525 12.4401 33.8532C13.003 33.354 13.6588 32.9705 14.37 32.7247C15.0811 32.4789 15.8337 32.3755 16.5848 32.4206C17.3359 32.4656 18.0708 32.6582 18.7475 32.9872C19.4242 33.3162 20.0294 33.7754 20.5287 34.3383C21.0279 34.9013 21.4114 35.557 21.6572 36.2682C21.903 36.9794 22.0064 37.732 21.9613 38.4831C21.9163 39.2342 21.7237 39.969 21.3947 40.6457L21.6659 40.7776Z" fill="#FFFDFA"/>
<path d="M20.3099 40.1182C20.5696 39.584 20.7217 39.0038 20.7572 38.4108C20.7928 37.8179 20.7112 37.2237 20.5171 36.6623C20.3231 36.1008 20.0203 35.5831 19.6262 35.1387C19.232 34.6942 18.7542 34.3318 18.22 34.072C17.6857 33.8122 17.1056 33.6602 16.5126 33.6247C15.9196 33.5891 15.3255 33.6707 14.764 33.8647C14.2026 34.0588 13.6849 34.3616 13.2404 34.7557C12.796 35.1499 12.4336 35.6277 12.1738 36.1619L12.3772 36.2608C12.624 35.7533 12.9683 35.2994 13.3905 34.9249C13.8127 34.5505 14.3046 34.2629 14.8379 34.0785C15.3713 33.8941 15.9358 33.8166 16.4991 33.8504C17.0624 33.8842 17.6135 34.0286 18.1211 34.2754C18.6286 34.5222 19.0825 34.8665 19.4569 35.2887C19.8314 35.7109 20.119 36.2028 20.3034 36.7361C20.4877 37.2695 20.5652 37.834 20.5314 38.3973C20.4977 38.9606 20.3533 39.5118 20.1065 40.0193L20.3099 40.1182Z" fill="#FFFDFA"/>
<circle cx="16.2418" cy="38.1401" r="1.20627" transform="rotate(25.9319 16.2418 38.1401)" fill="#FFFDFA"/>
<path d="M19.4232 39.687L23.0219 41.4369L19.3495 38.6452L19.4232 39.687Z" fill="#FFFDFA"/>
<path d="M9.19054 34.7113L12.863 37.503L12.7892 36.4612L9.19054 34.7113Z" fill="#FFFDFA"/>
<path d="M18.5 11C18.5 11 26.5 18.8 31 18.8C35.5 18.8 43.5 11 43.5 11C43.5 11 36 19.32 36 24C36 28.68 43.5 37 43.5 37C43.5 37 35.5 29.2 31 29.2C26.5 29.2 18.5 37 18.5 37C18.5 37 26 28.68 26 24C26 19.32 18.5 11 18.5 11Z" fill="#FFFDFA"/>
<path d="M50.9087 10.89C50.6787 11.6479 50.3016 12.3531 49.799 12.9652C49.2964 13.5774 48.6781 14.0845 47.9795 14.4578C47.2809 14.831 46.5157 15.063 45.7274 15.1404C44.9392 15.2179 44.1434 15.1394 43.3855 14.9093C42.6276 14.6792 41.9224 14.3021 41.3103 13.7995C40.6981 13.2969 40.191 12.6787 39.8177 11.9801C39.4445 11.2815 39.2125 10.5162 39.1351 9.72795C39.0576 8.9397 39.1361 8.14392 39.3662 7.38602L39.6548 7.47362C39.4362 8.19362 39.3616 8.94962 39.4352 9.69846C39.5088 10.4473 39.7292 11.1743 40.0837 11.838C40.4383 12.5016 40.9201 13.089 41.5016 13.5664C42.0832 14.0439 42.7531 14.4021 43.4731 14.6207C44.1931 14.8393 44.9491 14.9139 45.6979 14.8403C46.4468 14.7667 47.1738 14.5463 47.8374 14.1918C48.5011 13.8372 49.0884 13.3554 49.5659 12.7739C50.0434 12.1923 50.4016 11.5224 50.6202 10.8024L50.9087 10.89Z" fill="#FFFDFA"/>
<path d="M49.4659 10.452C49.2934 11.0204 49.0106 11.5493 48.6336 12.0084C48.2567 12.4675 47.793 12.8479 47.269 13.1278C46.7451 13.4077 46.1711 13.5817 45.5799 13.6398C44.9888 13.6979 44.3919 13.639 43.8235 13.4665C43.2551 13.2939 42.7262 13.0111 42.2671 12.6341C41.808 12.2572 41.4276 11.7935 41.1477 11.2696C40.8678 10.7456 40.6938 10.1717 40.6357 9.58047C40.5776 8.98928 40.6365 8.39244 40.809 7.82402L41.0255 7.88972C40.8615 8.42972 40.8056 8.99672 40.8608 9.55835C40.916 10.12 41.0812 10.6652 41.3472 11.163C41.6131 11.6607 41.9744 12.1012 42.4106 12.4593C42.8468 12.8174 43.3492 13.0861 43.8892 13.25C44.4292 13.414 44.9962 13.4699 45.5578 13.4147C46.1194 13.3595 46.6647 13.1943 47.1625 12.9283C47.6602 12.6624 48.1007 12.3011 48.4588 11.8649C48.8169 11.4287 49.0856 10.9263 49.2495 10.3863L49.4659 10.452Z" fill="#FFFDFA"/>
<path d="M50.9087 10.89C51.1388 10.1321 51.2174 9.33633 51.1399 8.54809C51.0624 7.75984 50.8305 6.99457 50.4572 6.29597C50.084 5.59737 49.5768 4.97912 48.9647 4.47653C48.3525 3.97393 47.6474 3.59683 46.8895 3.36676C46.1316 3.13668 45.3358 3.05814 44.5475 3.13561C43.7593 3.21308 42.994 3.44505 42.2954 3.81827C41.5968 4.1915 40.9786 4.69867 40.476 5.31082C39.9734 5.92298 39.5963 6.62813 39.3662 7.38603L39.6548 7.47363C39.8734 6.75363 40.2316 6.08373 40.7091 5.50218C41.1865 4.92063 41.7739 4.43882 42.4375 4.08426C43.1012 3.7297 43.8282 3.50933 44.577 3.43573C45.3259 3.36213 46.0819 3.43675 46.8019 3.65532C47.5219 3.87389 48.1918 4.23214 48.7733 4.7096C49.3549 5.18707 49.8367 5.7744 50.1912 6.43807C50.5458 7.10174 50.7662 7.82875 50.8398 8.57758C50.9134 9.32642 50.8388 10.0824 50.6202 10.8024L50.9087 10.89Z" fill="#FFFDFA"/>
<path d="M49.4659 10.452C49.6385 9.88359 49.6974 9.28675 49.6393 8.69556C49.5812 8.10438 49.4072 7.53042 49.1273 7.00648C48.8474 6.48253 48.467 6.01884 48.0079 5.6419C47.5488 5.26495 47.0199 4.98212 46.4515 4.80957C45.8831 4.63701 45.2862 4.5781 44.695 4.63621C44.1038 4.69431 43.5299 4.86829 43.0059 5.1482C42.482 5.42812 42.0183 5.8085 41.6414 6.26762C41.2644 6.72673 40.9816 7.2556 40.809 7.82402L41.0255 7.88972C41.1894 7.34972 41.4581 6.8473 41.8162 6.41114C42.1743 5.97497 42.6148 5.61362 43.1125 5.3477C43.6103 5.08177 44.1555 4.91649 44.7172 4.8613C45.2788 4.8061 45.8458 4.86206 46.3858 5.02599C46.9258 5.18992 47.4282 5.4586 47.8644 5.8167C48.3005 6.1748 48.6619 6.6153 48.9278 7.11305C49.1937 7.6108 49.359 8.15606 49.4142 8.71769C49.4694 9.27931 49.4134 9.84631 49.2495 10.3863L49.4659 10.452Z" fill="#FFFDFA"/>
<circle cx="45.1375" cy="9.13801" r="1.20627" transform="rotate(16.8868 45.1375 9.13801)" fill="#FFFDFA"/>
<path d="M48.5226 10.1656L52.3516 11.328L48.2859 9.14832L48.5226 10.1656Z" fill="#FFFDFA"/>
<path d="M37.6348 6.86042L41.7005 9.0401L41.4639 8.0228L37.6348 6.86042Z" fill="#FFFDFA"/>
<path d="M21.3843 5.85205C21.8245 6.5105 22.1307 7.2492 22.2855 8.02599C22.4402 8.80277 22.4404 9.60243 22.2861 10.3793C22.1318 11.1562 21.826 11.895 21.3861 12.5537C20.9462 13.2124 20.381 13.778 19.7225 14.2182C19.0641 14.6584 18.3254 14.9646 17.5486 15.1194C16.7718 15.2741 15.9721 15.2743 15.1953 15.12C14.4184 14.9657 13.6795 14.6599 13.0209 14.22C12.3622 13.7801 11.7966 13.2148 11.3564 12.5564L11.6071 12.3888C12.0253 13.0143 12.5626 13.5513 13.1883 13.9692C13.8141 14.3871 14.516 14.6776 15.254 14.8242C15.992 14.9708 16.7517 14.9706 17.4897 14.8236C18.2276 14.6766 18.9294 14.3857 19.5549 13.9675C20.1804 13.5493 20.7174 13.012 21.1353 12.3862C21.5532 11.7605 21.8437 11.0586 21.9903 10.3205C22.1369 9.58252 22.1367 8.82284 21.9897 8.0849C21.8427 7.34695 21.5518 6.64518 21.1336 6.01966L21.3843 5.85205Z" fill="#FFFDFA"/>
<path d="M20.1308 6.69009C20.461 7.18392 20.6906 7.73795 20.8067 8.32053C20.9227 8.90312 20.9229 9.50286 20.8072 10.0855C20.6914 10.6682 20.4621 11.2223 20.1322 11.7163C19.8023 12.2103 19.3783 12.6345 18.8845 12.9647C18.3906 13.2949 17.8366 13.5245 17.254 13.6406C16.6714 13.7566 16.0717 13.7568 15.489 13.641C14.9064 13.5253 14.3522 13.2959 13.8582 12.966C13.3642 12.6361 12.94 12.2122 12.6099 11.7183L12.7979 11.5926C13.1115 12.0618 13.5145 12.4646 13.9838 12.778C14.4531 13.0914 14.9796 13.3092 15.5331 13.4192C16.0866 13.5291 16.6564 13.529 17.2098 13.4187C17.7633 13.3085 18.2896 13.0903 18.7588 12.7767C19.2279 12.463 19.6307 12.06 19.9441 11.5907C20.2575 11.1214 20.4754 10.595 20.5853 10.0415C20.6953 9.48793 20.6951 8.91818 20.5849 8.36472C20.4746 7.81126 20.2564 7.28493 19.9428 6.81579L20.1308 6.69009Z" fill="#FFFDFA"/>
<path d="M21.3843 5.85204C20.9441 5.1936 20.3785 4.62831 19.7198 4.18845C19.0611 3.74859 18.3223 3.44277 17.5454 3.28846C16.7685 3.13415 15.9689 3.13436 15.1921 3.28909C14.4153 3.44382 13.6766 3.75003 13.0182 4.19025C12.3597 4.63046 11.7944 5.19605 11.3546 5.85473C10.9147 6.51341 10.6089 7.25228 10.4546 8.02915C10.3003 8.80602 10.3005 9.60567 10.4552 10.3825C10.6099 11.1592 10.9162 11.8979 11.3564 12.5564L11.6071 12.3888C11.1889 11.7633 10.898 11.0615 10.751 10.3235C10.604 9.5856 10.6038 8.82593 10.7504 8.0879C10.897 7.34988 11.1875 6.64795 11.6054 6.02221C12.0232 5.39646 12.5602 4.85915 13.1858 4.44095C13.8113 4.02274 14.5131 3.73184 15.251 3.58485C15.9889 3.43785 16.7486 3.43765 17.4866 3.58425C18.2247 3.73084 18.9266 4.02137 19.5523 4.43923C20.1781 4.8571 20.7154 5.39413 21.1336 6.01965L21.3843 5.85204Z" fill="#FFFDFA"/>
<path d="M20.1308 6.6901C19.8006 6.19626 19.3765 5.7723 18.8824 5.4424C18.3884 5.11251 17.8343 4.88314 17.2516 4.76741C16.669 4.65168 16.0692 4.65184 15.4866 4.76788C14.9041 4.88393 14.35 5.11359 13.8562 5.44375C13.3624 5.77391 12.9384 6.19811 12.6085 6.69212C12.2786 7.18613 12.0492 7.74028 11.9335 8.32293C11.8178 8.90558 11.8179 9.50532 11.934 10.0879C12.05 10.6705 12.2797 11.2245 12.6099 11.7184L12.7979 11.5927C12.4842 11.1235 12.266 10.5972 12.1558 10.0437C12.0456 9.49027 12.0454 8.92051 12.1554 8.36699C12.2653 7.81348 12.4832 7.28703 12.7966 6.81772C13.11 6.34841 13.5128 5.94543 13.9819 5.63178C14.451 5.31812 14.9774 5.09995 15.5308 4.9897C16.0843 4.87946 16.654 4.8793 17.2076 4.98925C17.7611 5.0992 18.2875 5.31709 18.7568 5.63049C19.2261 5.94389 19.6291 6.34666 19.9428 6.8158L20.1308 6.6901Z" fill="#FFFDFA"/>
<circle cx="16.3703" cy="9.20422" r="1.20627" transform="rotate(-33.7654 16.3703 9.20422)" fill="#FFFDFA"/>
<path d="M19.3112 7.23805L22.6378 5.01401L18.3745 6.77604L19.3112 7.23805Z" fill="#FFFDFA"/>
<path d="M9.85218 13.5621L14.1155 11.8L13.1788 11.338L9.85218 13.5621Z" fill="#FFFDFA"/>
<path d="M11.7059 61.008V55.712H13.1619V61.008H11.7059ZM8.42594 64V62.736H10.0099V64H8.42594ZM8.42594 53.984V52.72H10.0099V53.984H8.42594ZM8.42594 53.984V52.72H10.0099V53.984H8.42594ZM13.1619 55.712H11.7059C11.7059 55.1574 11.5566 54.7307 11.2579 54.432C10.9593 54.1334 10.5433 53.984 10.0099 53.984V52.72C10.6286 52.72 11.1726 52.848 11.6419 53.104C12.1219 53.3494 12.4953 53.7014 12.7619 54.16C13.0286 54.608 13.1619 55.1254 13.1619 55.712ZM13.1619 60.992C13.1619 61.5894 13.0286 62.112 12.7619 62.56C12.4953 63.008 12.1219 63.36 11.6419 63.616C11.1726 63.872 10.6286 64 10.0099 64V62.736C10.5433 62.736 10.9593 62.5867 11.2579 62.288C11.5566 61.9787 11.7059 61.5467 11.7059 60.992H13.1619ZM7.40194 64V52.72H8.85794V64H7.40194ZM21.6997 64L19.6517 58.496H21.1397L23.1877 64H21.6997ZM18.3397 59.216V57.968H19.9717V59.216H18.3397ZM18.3397 53.984V52.72H19.9717V53.984H18.3397ZM21.6677 56.24V55.696H23.1237V56.24H21.6677ZM23.1237 55.712H21.6677C21.6677 55.1574 21.513 54.7307 21.2037 54.432C20.905 54.1334 20.489 53.984 19.9557 53.984V52.72C20.585 52.72 21.1344 52.848 21.6037 53.104C22.0837 53.3494 22.457 53.7014 22.7237 54.16C22.9904 54.608 23.1237 55.1254 23.1237 55.712ZM23.1237 56.224C23.1237 56.8107 22.9904 57.3334 22.7237 57.792C22.457 58.24 22.0837 58.592 21.6037 58.848C21.1344 59.0934 20.585 59.216 19.9557 59.216V57.968C20.489 57.968 20.905 57.8134 21.2037 57.504C21.513 57.1947 21.6677 56.768 21.6677 56.224H23.1237ZM17.3957 64V52.72H18.8517V64H17.3957ZM31.9703 61.248V55.456H33.4263V61.248H31.9703ZM27.1063 61.248V55.456H28.5623V61.248H27.1063ZM33.4263 55.472H31.9703C31.9703 54.9174 31.8157 54.4907 31.5063 54.192C31.2077 53.8934 30.7917 53.744 30.2583 53.744V52.48C30.8877 52.48 31.437 52.608 31.9063 52.864C32.3863 53.1094 32.7597 53.4614 33.0263 53.92C33.293 54.368 33.4263 54.8854 33.4263 55.472ZM27.1063 55.472C27.1063 54.8854 27.2397 54.368 27.5063 53.92C27.773 53.4614 28.1463 53.1094 28.6263 52.864C29.1063 52.608 29.6557 52.48 30.2743 52.48V53.744C29.741 53.744 29.3197 53.8934 29.0103 54.192C28.7117 54.4907 28.5623 54.9174 28.5623 55.472H27.1063ZM33.4263 61.232C33.4263 61.8294 33.293 62.352 33.0263 62.8C32.7597 63.248 32.3863 63.6 31.9063 63.856C31.437 64.112 30.8877 64.24 30.2583 64.24V62.976C30.7917 62.976 31.2077 62.8267 31.5063 62.528C31.8157 62.2187 31.9703 61.7867 31.9703 61.232H33.4263ZM27.1063 61.232H28.5623C28.5623 61.7867 28.7117 62.2187 29.0103 62.528C29.3197 62.8267 29.741 62.976 30.2743 62.976V64.24C29.6557 64.24 29.1063 64.112 28.6263 63.856C28.1463 63.6 27.773 63.248 27.5063 62.8C27.2397 62.352 27.1063 61.8294 27.1063 61.232ZM42.4484 64L37.9364 52.72H39.3604L43.8724 64H42.4484ZM37.6644 64V52.72H39.1204V64H37.6644ZM42.8324 64V52.72H44.2884V64H42.8324ZM49.5367 64V62.736H53.9687V64H49.5367ZM49.7767 59.024V57.728H53.0087V59.024H49.7767ZM48.7207 52.72H50.1767V64H48.7207V52.72ZM49.6967 52.72H53.8087V53.984H49.6967V52.72ZM2.24313 66.984V65.72H3.87513V66.984H2.24313ZM2.24313 72.664V71.4H3.87513V72.664H2.24313ZM5.57113 69.672V68.712H7.02713V69.672H5.57113ZM7.02713 68.712H5.57113C5.57113 68.1574 5.41646 67.7307 5.10713 67.432C4.80846 67.1334 4.39246 66.984 3.85913 66.984V65.72C4.48846 65.72 5.0378 65.848 5.50713 66.104C5.98713 66.3494 6.36046 66.7014 6.62713 67.16C6.8938 67.608 7.02713 68.1254 7.02713 68.712ZM7.02713 69.656C7.02713 70.2534 6.8938 70.776 6.62713 71.224C6.36046 71.672 5.98713 72.024 5.50713 72.28C5.0378 72.536 4.48846 72.664 3.85913 72.664V71.4C4.39246 71.4 4.80846 71.2454 5.10713 70.936C5.41646 70.6267 5.57113 70.2 5.57113 69.656H7.02713ZM1.29913 77V65.72H2.75513V77H1.29913ZM9.35101 77V65.72H10.807V77H9.35101ZM13.4541 74.264V68.456H14.9101V74.264H13.4541ZM13.4541 68.456C13.4541 67.8694 13.5875 67.352 13.8541 66.904C14.1208 66.4454 14.4941 66.0934 14.9741 65.848C15.4541 65.592 16.0035 65.464 16.6221 65.464V66.728C16.0888 66.728 15.6675 66.8774 15.3581 67.176C15.0595 67.4747 14.9101 67.9014 14.9101 68.456H13.4541ZM13.4541 74.248H14.9101C14.9101 74.8027 15.0595 75.2347 15.3581 75.544C15.6675 75.8427 16.0888 75.992 16.6221 75.992V77.256C16.0035 77.256 15.4541 77.128 14.9741 76.872C14.4941 76.616 14.1208 76.264 13.8541 75.816C13.5875 75.368 13.4541 74.8454 13.4541 74.248ZM18.5261 68.872C18.4621 68.2 18.2595 67.6774 17.9181 67.304C17.5875 66.92 17.1501 66.728 16.6061 66.728V65.464C17.5128 65.464 18.2488 65.7414 18.8141 66.296C19.3901 66.8507 19.7368 67.6187 19.8541 68.6L18.5261 68.872ZM18.5261 73.848L19.8541 74.104C19.7368 75.096 19.3901 75.8694 18.8141 76.424C18.2488 76.9787 17.5128 77.256 16.6061 77.256V75.992C17.1501 75.992 17.5875 75.8054 17.9181 75.432C18.2595 75.048 18.4621 74.52 18.5261 73.848ZM21.116 66.984V65.72H27.756V66.984H21.116ZM23.708 77V65.72H25.164V77H23.708ZM34.3549 74.264V65.72H35.8109V74.264H34.3549ZM29.5229 74.264V65.72H30.9789V74.264H29.5229ZM35.8109 74.248C35.8109 74.8347 35.6775 75.3574 35.4109 75.816C35.1442 76.264 34.7709 76.616 34.2909 76.872C33.8215 77.1174 33.2775 77.24 32.6589 77.24V75.976C33.1922 75.976 33.6082 75.8267 33.9069 75.528C34.2055 75.2187 34.3549 74.792 34.3549 74.248H35.8109ZM29.5229 74.248H30.9789C30.9789 74.792 31.1282 75.2187 31.4269 75.528C31.7362 75.8267 32.1575 75.976 32.6909 75.976V77.24C32.0722 77.24 31.5229 77.1174 31.0429 76.872C30.5629 76.616 30.1895 76.264 29.9229 75.816C29.6562 75.3574 29.5229 74.8347 29.5229 74.248ZM42.75 77L40.702 71.496H42.19L44.238 77H42.75ZM39.39 72.216V70.968H41.022V72.216H39.39ZM39.39 66.984V65.72H41.022V66.984H39.39ZM42.718 69.24V68.696H44.174V69.24H42.718ZM44.174 68.712H42.718C42.718 68.1574 42.5633 67.7307 42.254 67.432C41.9553 67.1334 41.5393 66.984 41.006 66.984V65.72C41.6353 65.72 42.1847 65.848 42.654 66.104C43.134 66.3494 43.5073 66.7014 43.774 67.16C44.0407 67.608 44.174 68.1254 44.174 68.712ZM44.174 69.224C44.174 69.8107 44.0407 70.3334 43.774 70.792C43.5073 71.24 43.134 71.592 42.654 71.848C42.1847 72.0934 41.6353 72.216 41.006 72.216V70.968C41.5393 70.968 41.9553 70.8134 42.254 70.504C42.5633 70.1947 42.718 69.768 42.718 69.224H44.174ZM38.446 77V65.72H39.902V77H38.446ZM47.3726 77V75.736H51.8046V77H47.3726ZM47.6126 72.024V70.728H50.8446V72.024H47.6126ZM46.5566 65.72H48.0126V77H46.5566V65.72ZM47.5326 65.72H51.6446V66.984H47.5326V65.72ZM58.6804 74.472C58.6804 74.0774 58.5684 73.7307 58.3444 73.432C58.1204 73.1227 57.8324 72.8347 57.4804 72.568C57.1284 72.3014 56.7497 72.0294 56.3444 71.752C55.9497 71.4747 55.5764 71.1707 55.2244 70.84C54.8724 70.5094 54.5844 70.136 54.3604 69.72C54.1364 69.2934 54.0244 68.8027 54.0244 68.248H55.4804C55.4804 68.632 55.5924 68.9787 55.8164 69.288C56.0404 69.5867 56.3284 69.8747 56.6804 70.152C57.0324 70.4187 57.4057 70.6907 57.8004 70.968C58.2057 71.2454 58.5844 71.5494 58.9364 71.88C59.2884 72.2 59.5764 72.5734 59.8004 73C60.0244 73.416 60.1364 73.9067 60.1364 74.472H58.6804ZM54.0244 68.28C54.0244 67.6934 54.1577 67.192 54.4244 66.776C54.691 66.36 55.0644 66.04 55.5444 65.816C56.0244 65.592 56.5737 65.48 57.1924 65.48V66.728C56.659 66.728 56.2377 66.8667 55.9284 67.144C55.6297 67.4214 55.4804 67.8 55.4804 68.28H54.0244ZM60.1364 74.44C60.1364 75.016 60.003 75.5174 59.7364 75.944C59.4697 76.36 59.0964 76.68 58.6164 76.904C58.147 77.128 57.5977 77.24 56.9684 77.24V75.976C57.5017 75.976 57.9177 75.8427 58.2164 75.576C58.5257 75.2987 58.6804 74.92 58.6804 74.44H60.1364ZM58.6964 68.136C58.643 67.656 58.4724 67.304 58.1844 67.08C57.907 66.8454 57.5764 66.728 57.1924 66.728V65.48C57.6937 65.48 58.147 65.5814 58.5524 65.784C58.9577 65.9867 59.2937 66.264 59.5604 66.616C59.827 66.968 59.9924 67.384 60.0564 67.864L58.6964 68.136ZM55.0484 73.832C55.1124 74.504 55.3097 75.032 55.6404 75.416C55.9817 75.7894 56.4244 75.976 56.9684 75.976V77.24C56.0617 77.24 55.3204 76.9627 54.7444 76.408C54.179 75.8534 53.8377 75.0854 53.7204 74.104L55.0484 73.832Z" fill="#FFFDFA"/>
</svg>
